<?xml version="1.0" standalone="no"?>
<!DOCTYPE svg PUBLIC "-//W3C//DTD SVG 20010904//EN"
 "http://www.w3.org/TR/2001/REC-SVG-20010904/DTD/svg10.dtd">
<svg version="1.0" xmlns="http://www.w3.org/2000/svg"
 width="600.000000pt" height="404.000000pt" viewBox="0 0 600.000000 404.000000"
 preserveAspectRatio="xMidYMid meet">
<g transform="translate(0.000000,404.000000) scale(0.100000,-0.100000)"
fill="#000000" stroke="none">
<path d="M5730 3768 c-559 -604 -934 -1031 -1110 -1263 -29 -38 -54 -71 -55
-73 -1 -2 -19 26 -39 62 -20 36 -41 68 -46 71 -6 3 -10 15 -10 26 0 32 -29 79
-49 79 -10 0 -24 -7 -31 -15 -10 -12 -7 -23 14 -59 23 -39 26 -55 26 -137 0
-102 -20 -190 -51 -228 -38 -46 -122 -23 -159 42 -14 24 -13 28 12 54 63 68
76 143 31 185 -53 50 -102 48 -129 -5 -15 -28 -16 -102 -2 -191 2 -14 -13 -29
-57 -57 -33 -20 -70 -40 -82 -44 -20 -5 -23 -3 -23 22 0 45 -19 100 -37 107
-39 16 -92 -56 -95 -129 -1 -37 13 -61 43 -70 16 -5 18 -13 13 -53 -4 -26 -15
-66 -24 -89 -18 -41 -19 -42 -52 -33 -18 6 -33 10 -34 10 -1 0 1 23 4 50 4 49
3 52 -36 89 -58 55 -141 75 -196 46 l-28 -15 7 47 c9 60 39 139 62 165 13 14
15 23 7 36 -19 30 -49 25 -81 -12 -65 -73 -98 -216 -91 -394 5 -130 22 -185
62 -203 30 -14 85 10 176 77 57 42 62 44 101 35 53 -12 94 0 136 41 36 35 63
107 63 169 0 36 2 38 63 67 34 17 76 40 93 51 l31 21 17 -25 c39 -59 143 -82
203 -45 49 29 92 124 101 218 l8 77 22 -43 23 -42 -44 -73 c-88 -144 -108
-199 -84 -231 21 -28 53 -15 125 49 75 68 90 105 73 186 -6 30 -16 60 -20 68
-7 11 19 52 96 153 212 278 498 604 1066 1216 167 180 211 232 195 232 -2 0
-95 -100 -208 -222z m-1236 -1270 c6 -5 1 -8 -11 -8 -13 0 -23 6 -23 13 0 20
14 31 19 15 2 -7 9 -16 15 -20z m-271 10 c12 -7 26 -20 32 -28 10 -16 16 -64
6 -54 -3 3 -6 15 -6 27 -1 14 -6 21 -15 19 -8 -2 -12 0 -7 4 4 4 -5 16 -20 26
-32 20 -24 25 10 6z m-4 -54 c9 -20 8 -33 -5 -62 -14 -33 -17 -35 -24 -17 -5
11 -9 41 -9 67 -1 52 17 58 38 12z m-659 -78 c0 -2 -7 -21 -16 -42 -9 -22 -18
-48 -20 -59 -2 -11 -8 -42 -13 -70 -7 -39 -6 -54 6 -67 12 -14 18 -14 39 -3
15 7 43 11 67 8 23 -3 47 -5 54 -6 7 0 10 -4 8 -7 -3 -4 9 -10 27 -14 17 -3
28 -9 25 -12 -3 -4 1 -13 9 -21 8 -8 12 -19 9 -24 -4 -5 -2 -9 2 -9 5 0 9 -19
9 -41 -1 -31 4 -44 19 -53 11 -6 23 -15 27 -20 3 -5 18 -2 35 8 l28 17 -23
-20 c-17 -15 -31 -18 -60 -14 -20 3 -42 10 -48 14 -7 6 -29 -4 -58 -26 -51
-40 -59 -40 -21 1 32 34 31 38 -6 66 -17 13 -51 41 -76 63 -25 22 -47 40 -48
40 -1 0 -9 -6 -18 -14 -35 -29 -15 -205 25 -220 18 -6 18 -8 4 -20 -9 -8 -26
-11 -40 -7 -20 5 -27 16 -36 61 -22 107 -5 339 29 403 6 12 9 22 5 22 -4 0 3
11 16 25 13 14 20 25 16 25 -4 0 -4 5 -1 10 6 9 25 14 25 6z m619 -23 c-3 -21
3 -24 19 -12 15 12 16 12 5 -2 -7 -8 -14 -26 -16 -39 -2 -13 -11 -24 -20 -26
-14 -2 -15 1 -6 18 7 14 8 23 1 30 -12 12 -5 38 9 38 5 0 8 -3 8 -7z m387
-118 c-7 -36 -108 -141 -126 -130 -25 16 -1 86 67 199 l37 61 14 -49 c8 -26
11 -63 8 -81z m-630 38 c5 -37 14 -65 24 -78 8 -10 8 -20 -1 -37 -7 -13 -12
-26 -11 -30 4 -16 -20 -108 -29 -108 -5 0 -7 10 -4 23 14 64 12 102 -8 119
-11 10 -24 15 -29 12 -6 -4 -8 13 -4 47 8 78 8 79 23 79 8 0 11 5 7 13 -4 6 1
4 11 -5 10 -10 20 -25 21 -35z m277 -38 c10 -14 14 -25 10 -25 -4 0 -16 12
-26 25 -10 14 -14 25 -10 25 4 0 16 -12 26 -25z m-580 -264 l38 -23 -33 -25
c-48 -36 -86 -54 -92 -44 -6 9 -25 134 -26 165 0 15 6 13 38 -16 20 -18 54
-44 75 -57z m287 15 c0 -2 -7 -9 -15 -16 -13 -11 -14 -10 -9 4 5 14 24 23 24
12z m-304 -121 c-8 -8 -18 -15 -22 -15 -4 0 -13 -8 -20 -17 -7 -10 -14 -14
-14 -10 0 11 50 57 62 57 5 0 3 -7 -6 -15z"/>
<path d="M3630 2101 c0 -4 14 -15 30 -24 17 -10 30 -23 30 -29 0 -6 -15 1 -34
16 -39 29 -58 34 -50 11 9 -21 72 -58 89 -51 21 8 19 32 -4 55 -11 11 -18 21
-16 23 2 2 -8 4 -21 4 -13 1 -24 -1 -24 -5z"/>
<path d="M5709 3653 c-13 -16 -12 -17 4 -4 16 13 21 21 13 21 -2 0 -10 -8 -17
-17z"/>
<path d="M5286 3382 c-3 -5 1 -9 9 -9 8 0 12 4 9 9 -3 4 -7 8 -9 8 -2 0 -6 -4
-9 -8z"/>
<path d="M5235 3300 c-4 -6 -10 -8 -15 -5 -5 3 -11 1 -14 -4 -8 -13 22 -7 36
7 7 7 9 12 6 12 -4 0 -10 -5 -13 -10z"/>
<path d="M5161 3227 c-8 -10 -7 -14 2 -14 8 0 14 6 14 14 0 7 -1 13 -2 13 -2
0 -8 -6 -14 -13z"/>
<path d="M4983 2853 c0 -9 4 -10 14 -2 7 6 13 12 13 14 0 1 -6 2 -13 2 -8 0
-14 -6 -14 -14z"/>
<path d="M1752 2548 c-30 -30 -2 -88 142 -288 104 -145 144 -208 217 -341 48
-88 60 -121 73 -195 41 -238 45 -468 11 -581 -18 -60 -27 -68 -55 -53 -27 15
-57 4 -77 -27 -16 -25 -16 -26 6 -44 46 -37 124 -19 174 40 50 60 62 120 62
306 0 94 -3 198 -7 233 -5 37 -4 61 1 57 5 -3 17 2 25 11 12 12 16 37 16 110
0 75 3 94 14 94 30 0 158 -75 363 -213 l212 -142 1 -117 c0 -72 4 -118 10
-118 6 0 10 43 10 110 l0 109 82 -39 c99 -48 162 -54 196 -17 23 25 29 47 12
47 -5 0 -10 -7 -10 -15 0 -25 -45 -48 -82 -40 -36 7 -198 85 -198 94 0 40 34
265 49 323 23 90 72 215 107 276 32 54 26 74 -18 70 -30 -3 -37 -10 -71 -75
-21 -40 -47 -107 -57 -150 -22 -86 -45 -347 -35 -400 l6 -34 -43 27 c-24 15
-99 66 -168 113 -242 167 -328 215 -373 209 -27 -4 -34 -33 -36 -138 -1 -63
-3 -72 -15 -60 -7 8 -25 70 -40 137 -79 363 -219 632 -368 709 -51 26 -116 32
-136 12z m45 -29 c-9 -6 -14 -16 -11 -22 5 -9 4 -9 -6 0 -15 14 -5 33 18 33
15 -1 15 -2 -1 -11z m60 -38 c89 -64 152 -166 229 -368 24 -65 44 -122 44
-128 0 -5 -19 24 -41 65 -22 41 -84 140 -136 220 -117 177 -155 240 -144 240
4 0 26 -13 48 -29z m67 -3 c-3 -4 0 -8 6 -8 18 0 42 -29 34 -41 -4 -7 -3 -9 4
-5 9 6 34 -26 95 -126 9 -15 14 -35 11 -45 -5 -15 -4 -15 5 -3 8 12 11 11 16
-5 4 -11 15 -40 25 -65 10 -25 27 -70 36 -100 10 -30 22 -60 27 -67 5 -7 6
-17 2 -23 -3 -5 -2 -10 4 -10 6 0 8 -6 5 -14 -3 -8 0 -17 5 -21 6 -3 9 -10 6
-15 -3 -5 0 -21 6 -37 6 -15 13 -39 14 -51 2 -13 9 -47 16 -75 7 -29 12 -55
11 -59 -1 -5 2 -8 8 -8 5 0 6 -7 3 -17 -4 -11 -3 -14 5 -9 9 5 9 1 2 -18 -6
-17 -6 -45 1 -83 7 -37 9 -121 5 -228 -7 -200 -8 -205 -18 -199 -4 3 -8 -2 -8
-11 0 -56 -75 -112 -135 -101 -52 10 -33 30 21 22 39 -5 46 -3 60 19 44 67 63
268 43 446 -6 46 -12 102 -14 124 -2 22 -4 40 -5 40 -1 0 -3 9 -5 20 -17 101
-23 125 -36 141 -6 8 -8 14 -3 14 5 0 5 4 -1 8 -5 4 -20 26 -31 49 -19 37 -20
43 -6 57 14 14 14 21 -3 73 -10 32 -19 60 -20 63 -3 24 -78 194 -92 208 -7 7
-13 20 -13 28 0 8 -5 14 -11 14 -5 0 -8 4 -5 9 3 5 -1 12 -10 15 -8 3 -12 10
-9 16 3 5 3 10 -2 10 -15 1 -72 77 -58 77 8 0 12 -4 9 -9z m-103 -45 c13 -16
12 -17 -3 -4 -10 7 -18 15 -18 17 0 8 8 3 21 -13z m1260 -286 c-6 -8 -8 -17
-4 -20 3 -4 0 -7 -7 -7 -7 0 -10 -3 -7 -7 4 -3 -2 -20 -12 -37 -10 -17 -28
-59 -41 -93 -12 -35 -27 -60 -32 -57 -6 4 -5 9 2 14 7 4 10 12 7 17 -15 24 70
203 96 203 5 0 4 -6 -2 -13z m-108 -282 c-3 -9 -8 -14 -10 -11 -3 3 -2 9 2 15
9 16 15 13 8 -4z"/>
<path d="M4617 2403 c3 -7 6 -13 8 -13 2 0 5 6 8 13 3 8 -1 14 -8 14 -7 0 -11
-6 -8 -14z"/>
<path d="M933 1785 c-124 -35 -244 -115 -374 -253 -266 -280 -496 -722 -540
-1038 -14 -98 -10 -114 30 -114 42 0 61 23 61 75 0 189 141 544 331 830 122
185 295 361 409 418 41 20 96 40 122 43 130 17 248 -76 326 -258 l26 -60 -229
-227 c-127 -125 -272 -258 -322 -296 -51 -39 -93 -75 -93 -82 0 -6 10 -19 21
-27 21 -14 26 -12 83 32 90 68 192 175 362 377 83 99 158 186 167 193 14 12
18 5 38 -55 58 -181 24 -607 -72 -912 -85 -267 -194 -395 -300 -351 -44 18
-108 87 -149 158 -19 34 -41 62 -47 62 -20 0 -17 -7 42 -96 87 -130 160 -172
243 -139 87 35 157 146 227 357 73 225 112 436 122 668 5 136 4 152 -21 253
-26 104 -27 110 -10 128 9 10 14 22 10 27 -4 4 -14 -2 -22 -12 -13 -19 -14
-19 -20 0 -20 64 -81 169 -121 212 -81 86 -191 118 -300 87z m-413 -339 c0 -2
-8 -10 -17 -17 -16 -13 -17 -12 -4 4 13 16 21 21 21 13z m-43 -54 c-10 -10
-14 -22 -10 -27 5 -4 2 -5 -5 -1 -11 6 -10 12 4 27 9 10 19 19 22 19 3 0 -2
-8 -11 -18z m-42 -62 c-3 -5 -12 -10 -18 -10 -7 0 -6 4 3 10 19 12 23 12 15 0z
m-55 -90 c-12 -16 -23 -30 -26 -30 -8 0 18 44 30 52 19 13 18 9 -4 -22z m-52
-86 c-12 -21 -25 -41 -28 -44 -6 -6 -45 -81 -45 -89 -1 -3 -13 -30 -28 -58
-15 -29 -25 -53 -22 -53 3 0 -3 -17 -14 -39 -11 -21 -17 -42 -13 -46 4 -5 2
-5 -4 -2 -10 6 -15 -4 -28 -63 -1 -6 -23 -75 -42 -136 -13 -41 -31 -190 -25
-209 1 -5 -1 -7 -5 -3 -4 4 -14 2 -22 -5 -11 -8 -14 -8 -9 0 4 6 4 13 0 16 -5
2 -2 2 6 0 11 -3 12 -1 1 12 -11 13 -11 28 -1 78 6 34 13 71 16 82 5 28 51
167 83 248 16 44 30 66 38 63 8 -3 11 0 8 8 -3 7 1 26 7 42 7 16 12 32 11 37
-1 4 2 7 6 7 9 0 33 44 38 69 1 8 9 18 16 22 7 5 9 9 3 9 -5 0 -2 5 8 11 9 5
17 15 17 20 0 6 9 23 20 39 11 15 18 30 16 32 -1 3 1 2 6 -2 5 -4 -1 -24 -14
-46z m542 -218 c0 -2 -7 -9 -15 -16 -13 -11 -14 -10 -9 4 5 14 24 23 24 12z
m-70 -61 c0 -2 -10 -10 -22 -16 -21 -11 -22 -11 -9 4 13 16 31 23 31 12z"/>
<path d="M1425 1501 c-3 -5 -2 -12 3 -15 5 -3 9 1 9 9 0 17 -3 19 -12 6z"/>
<path d="M1793 920 c1 -21 6 -29 15 -25 8 3 25 8 38 11 20 5 22 9 13 25 -6 12
-20 19 -39 19 -26 0 -29 -3 -27 -30z"/>
<path d="M95 909 c-4 -6 -5 -12 -2 -15 2 -3 7 2 10 11 7 17 1 20 -8 4z"/>
<path d="M739 337 c6 -8 7 -18 3 -22 -4 -5 -1 -5 6 -1 10 6 10 11 1 22 -6 8
-14 14 -16 14 -3 0 0 -6 6 -13z"/>
<path d="M726 267 c3 -10 9 -15 12 -12 3 3 0 11 -7 18 -10 9 -11 8 -5 -6z"/>
</g>
</svg>
