<?xml version="1.0" standalone="no"?> <!DOCTYPE svg PUBLIC "-//W3C//DTD SVG 20010904//EN" "http://www.w3.org/TR/2001/REC-SVG-20010904/DTD/svg10.dtd"> <svg version="1.0" xmlns="http://www.w3.org/2000/svg" width="600.000000pt" height="800.000000pt" viewBox="0 0 600.000000 800.000000" preserveAspectRatio="xMidYMid meet"> <g transform="translate(0.000000,800.000000) scale(0.100000,-0.100000)" fill="#f40b0b" stroke="none"> <path d="M1860 7985 c-7 -9 -11 -17 -8 -20 2 -2 12 4 21 15 9 11 13 20 8 20 -5 0 -14 -7 -21 -15z"/> <path d="M2890 7855 c0 -8 4 -15 10 -15 5 0 7 7 4 15 -4 8 -8 15 -10 15 -2 0 -4 -7 -4 -15z"/> <path d="M5830 7860 c0 -5 5 -10 10 -10 6 0 10 5 10 10 0 6 -4 10 -10 10 -5 0 -10 -4 -10 -10z"/> <path d="M1721 7794 c0 -11 3 -14 6 -6 3 7 2 16 -1 19 -3 4 -6 -2 -5 -13z"/> <path d="M328 7083 c7 -3 16 -2 19 1 4 3 -2 6 -13 5 -11 0 -14 -3 -6 -6z"/> <path d="M193 7073 c9 -2 23 -2 30 0 6 3 -1 5 -18 5 -16 0 -22 -2 -12 -5z"/> <path d="M268 7073 c7 -3 16 -2 19 1 4 3 -2 6 -13 5 -11 0 -14 -3 -6 -6z"/> <path d="M480 7070 c0 -5 9 -10 19 -10 11 0 23 5 26 10 4 6 -5 10 -19 10 -14 0 -26 -4 -26 -10z"/> <path d="M1293 7033 c9 -2 25 -2 35 0 9 3 1 5 -18 5 -19 0 -27 -2 -17 -5z"/> <path d="M1545 7030 c3 -5 14 -10 23 -10 15 0 15 2 2 10 -20 13 -33 13 -25 0z"/> <path d="M2698 7023 c7 -3 16 -2 19 1 4 3 -2 6 -13 5 -11 0 -14 -3 -6 -6z"/> <path d="M1150 6999 c0 -5 5 -7 10 -4 6 3 10 8 10 11 0 2 -4 4 -10 4 -5 0 -10 -5 -10 -11z"/> <path d="M2058 7003 c7 -3 16 -2 19 1 4 3 -2 6 -13 5 -11 0 -14 -3 -6 -6z"/> <path d="M2248 7003 c7 -3 16 -2 19 1 4 3 -2 6 -13 5 -11 0 -14 -3 -6 -6z"/> <path d="M2488 6993 c6 -2 18 -2 25 0 6 3 1 5 -13 5 -14 0 -19 -2 -12 -5z"/> <path d="M1113 6943 c-3 -10 -13 -27 -22 -37 -9 -11 -11 -16 -4 -12 19 11 55 66 43 66 -6 0 -13 -8 -17 -17z"/> <path d="M1062 6864 c-7 -8 -8 -14 -3 -14 10 0 25 19 20 25 -2 1 -10 -3 -17 -11z"/> <path d="M5083 6843 c9 -2 23 -2 30 0 6 3 -1 5 -18 5 -16 0 -22 -2 -12 -5z"/> <path d="M5248 6833 c6 -2 18 -2 25 0 6 3 1 5 -13 5 -14 0 -19 -2 -12 -5z"/> <path d="M5708 6803 c6 -2 18 -2 25 0 6 3 1 5 -13 5 -14 0 -19 -2 -12 -5z"/> <path d="M5830 6801 c0 -6 4 -13 10 -16 6 -3 7 1 4 9 -7 18 -14 21 -14 7z"/> <path d="M992 6769 c-13 -16 -19 -29 -14 -29 10 0 46 49 40 55 -2 1 -13 -11 -26 -26z"/> <path d="M5908 6783 c7 -3 16 -2 19 1 4 3 -2 6 -13 5 -11 0 -14 -3 -6 -6z"/> <path d="M5978 6783 c7 -3 16 -2 19 1 4 3 -2 6 -13 5 -11 0 -14 -3 -6 -6z"/> <path d="M930 6679 c0 -5 5 -7 10 -4 6 3 10 8 10 11 0 2 -4 4 -10 4 -5 0 -10 -5 -10 -11z"/> <path d="M896 6631 c-10 -11 -16 -26 -13 -33 4 -10 6 -10 6 1 1 8 8 23 18 33 9 10 14 18 11 18 -3 0 -13 -9 -22 -19z"/> <path d="M83 6533 c9 -2 23 -2 30 0 6 3 -1 5 -18 5 -16 0 -22 -2 -12 -5z"/> <path d="M823 6533 c4 -3 1 -13 -6 -22 -11 -14 -10 -14 6 -2 20 15 22 31 5 31 -6 0 -8 -3 -5 -7z"/> <path d="M721 6374 c0 -11 3 -14 6 -6 3 7 2 16 -1 19 -3 4 -6 -2 -5 -13z"/> <path d="M271 6364 c0 -11 3 -14 6 -6 3 7 2 16 -1 19 -3 4 -6 -2 -5 -13z"/> <path d="M680 6320 c-9 -6 -10 -10 -3 -10 6 0 15 5 18 10 8 12 4 12 -15 0z"/> <path d="M506 6063 c-6 -14 -5 -15 5 -6 7 7 10 15 7 18 -3 3 -9 -2 -12 -12z"/> <path d="M476 6013 c-6 -14 -5 -15 5 -6 7 7 10 15 7 18 -3 3 -9 -2 -12 -12z"/> <path d="M320 5789 c0 -5 5 -7 10 -4 6 3 10 8 10 11 0 2 -4 4 -10 4 -5 0 -10 -5 -10 -11z"/> <path d="M260 5710 c0 -5 5 -10 10 -10 6 0 10 5 10 10 0 6 -4 10 -10 10 -5 0 -10 -4 -10 -10z"/> <path d="M1137 5613 c-5 -8 -14 -107 -22 -233 -2 -36 -15 -238 -29 -450 -13 -212 -30 -488 -36 -615 -6 -126 -15 -304 -20 -395 -5 -91 -12 -246 -15 -345 -3 -99 -8 -216 -10 -260 -3 -44 -7 -152 -10 -240 -3 -88 -8 -205 -10 -260 -2 -55 -7 -228 -11 -385 -4 -157 -8 -301 -8 -320 l-1 -35 170 -11 c221 -13 216 -13 226 14 7 19 5 22 -14 22 -18 0 -19 -2 -7 -10 11 -7 2 -10 -33 -10 -27 0 -46 4 -43 9 3 5 -1 11 -9 14 -9 4 -12 1 -8 -9 4 -12 -1 -14 -23 -10 -16 2 -33 5 -39 6 -5 1 -1 6 10 11 16 7 14 8 -10 3 -16 -3 -32 -9 -35 -13 -7 -10 -120 -8 -120 3 0 4 -6 6 -13 3 -29 -11 -38 9 -17 35 21 27 26 43 11 34 -16 -10 -22 56 -6 73 15 18 10 60 -9 73 -7 5 -4 13 9 22 16 13 17 17 7 24 -14 10 -23 134 -9 125 4 -2 7 -14 8 -26 1 -20 2 -20 8 3 5 17 2 29 -8 38 -14 11 -14 13 3 26 10 8 16 21 13 28 -4 10 -6 10 -6 1 -1 -7 -5 -13 -10 -13 -6 0 -9 47 -7 111 2 83 6 113 17 120 11 7 11 9 0 9 -7 0 -11 6 -8 13 3 7 2 32 -2 54 -7 37 -6 40 13 36 13 -3 17 -2 10 4 -14 9 -23 127 -11 139 4 4 8 -24 9 -62 l1 -69 6 60 c4 33 4 65 1 70 -2 6 -4 21 -3 35 l2 25 -8 -25 c-5 -16 -8 9 -8 72 -1 67 3 97 11 95 7 -1 11 17 12 48 1 28 -1 40 -3 28 -2 -13 -8 -23 -12 -23 -5 0 -6 11 -3 25 2 14 11 25 18 25 8 0 14 5 14 10 0 6 -8 10 -17 8 -10 -2 -19 5 -21 16 -3 13 0 16 9 11 9 -6 11 3 6 43 -5 42 -3 54 11 63 16 10 15 10 -1 5 -16 -5 -17 -2 -11 32 4 20 7 65 7 100 -2 84 15 79 20 -5 3 -61 4 -60 3 14 0 45 3 85 7 89 4 4 2 13 -4 21 -9 9 -8 13 0 13 6 0 11 7 11 15 0 20 -10 19 -27 -2 -12 -16 -13 -15 -11 12 2 18 8 29 16 27 6 -1 12 7 12 19 0 15 -5 19 -16 15 -8 -3 -12 -2 -9 4 3 6 13 10 21 10 11 0 14 11 13 45 -2 25 -6 45 -10 45 -4 0 -9 16 -11 35 -5 44 8 46 21 3 8 -29 9 -26 8 24 -1 32 -5 58 -9 58 -5 0 -8 -10 -8 -22 0 -41 -12 -9 -14 36 -2 48 9 63 17 24 3 -17 5 -14 6 10 1 21 -4 35 -14 38 -14 6 -13 8 1 19 12 8 14 14 6 19 -9 5 -9 12 0 26 9 14 9 22 -1 34 -10 12 -10 16 -1 16 8 0 11 14 8 43 -2 23 1 42 7 42 5 0 9 -6 7 -12 -2 -7 2 -13 8 -13 15 0 8 82 -8 88 -8 2 -10 -3 -6 -15 5 -17 5 -17 -6 1 -13 20 1 66 20 66 5 0 10 4 10 10 0 5 -7 7 -15 4 -8 -4 -15 -2 -15 4 0 6 4 12 9 14 5 2 7 18 3 35 -10 45 -3 175 9 167 5 -3 9 2 9 11 0 9 -3 14 -7 12 -5 -3 -6 19 -5 49 2 30 8 54 14 54 5 0 6 5 2 11 -10 17 -13 119 -3 113 5 -3 10 -17 10 -32 1 -27 1 -27 8 3 4 17 3 33 -3 37 -13 9 -20 81 -6 73 6 -3 7 -12 4 -18 -4 -7 -3 -9 1 -4 5 4 10 26 11 50 2 36 1 38 -5 12 -6 -23 -10 -26 -15 -14 -4 8 -2 28 3 42 6 15 7 27 1 27 -5 0 -5 12 0 30 5 17 7 40 5 51 -5 27 4 49 21 49 8 0 14 5 14 11 0 6 -6 9 -12 6 -10 -3 -13 18 -15 84 -1 61 2 87 9 82 7 -4 8 -1 3 7 -4 7 -2 16 6 21 10 6 11 9 2 9 -7 0 -13 7 -13 15 0 8 5 15 10 15 6 0 5 9 -2 21 -10 17 -10 23 0 26 6 3 12 15 12 28 0 18 4 22 20 18 11 -3 18 -9 15 -13 -6 -9 25 -23 34 -15 3 3 -1 10 -9 15 -11 7 -8 10 14 10 25 0 27 -2 16 -16 -12 -13 -10 -15 16 -11 16 2 34 0 41 -5 7 -5 14 -5 18 2 3 5 -1 10 -9 10 -8 0 -18 4 -21 10 -4 6 10 9 33 7 27 -1 38 -6 35 -14 -3 -8 3 -13 18 -12 13 0 18 3 12 6 -23 9 -13 20 17 19 31 -1 40 -11 18 -18 -7 -3 2 -5 20 -5 21 0 28 3 20 8 -7 5 18 8 57 7 39 0 64 -3 58 -5 -7 -3 -13 -9 -13 -14 0 -10 61 0 74 12 16 15 39 10 32 -6 -4 -12 4 -15 43 -15 67 0 112 10 105 24 -3 6 1 3 9 -6 11 -14 16 -15 26 -5 9 9 14 9 21 -2 7 -13 11 -13 26 0 16 12 17 12 11 -3 -3 -10 -2 -18 3 -18 6 0 10 8 10 18 0 14 2 15 9 3 12 -19 141 -29 141 -12 0 15 27 14 32 -1 2 -6 12 -12 22 -14 14 -2 15 0 5 12 -9 11 -7 14 10 14 11 0 20 -5 18 -11 -1 -7 16 -13 41 -16 35 -3 42 -1 42 14 0 15 2 16 10 3 9 -13 11 -13 20 0 9 13 10 13 11 0 1 -8 1 -18 0 -22 -1 -10 12 -10 33 -2 9 3 13 10 10 15 -3 5 2 9 11 9 9 0 13 -4 10 -10 -3 -6 4 -10 17 -11 13 0 32 -2 43 -4 38 -8 163 -7 176 0 7 5 10 4 6 -2 -4 -7 3 -10 18 -9 18 1 24 5 20 15 -4 11 0 10 14 -3 11 -10 25 -15 31 -11 6 4 18 1 27 -7 15 -11 16 -11 10 5 -5 14 -3 16 11 9 9 -5 23 -7 30 -5 6 3 12 -1 12 -8 0 -7 6 -5 15 7 8 10 15 15 15 9 0 -5 5 -3 10 5 8 12 10 11 10 -7 0 -27 17 -31 23 -5 4 16 5 16 6 0 1 -14 5 -16 26 -8 16 6 25 6 25 0 0 -14 34 -12 49 3 11 10 13 10 7 0 -6 -10 13 -13 79 -13 55 0 84 4 80 10 -3 6 -1 10 4 10 6 0 11 -7 11 -16 0 -14 3 -14 15 -4 10 9 15 9 15 1 0 -18 38 -13 49 7 10 16 10 16 11 0 0 -15 9 -18 56 -18 30 0 65 5 76 11 15 8 19 8 14 0 -4 -6 -2 -11 3 -11 18 0 26 5 24 12 -3 8 25 0 42 -12 18 -12 165 -10 165 2 0 9 3 9 12 0 14 -14 68 -16 68 -2 0 6 19 10 43 9 32 0 37 -2 22 -9 -17 -7 -15 -9 12 -9 17 -1 35 4 38 9 3 6 12 10 18 10 8 0 8 -3 -1 -9 -19 -12 88 -21 131 -11 21 4 39 4 45 -2 7 -7 26 -7 56 0 35 7 44 7 37 -2 -7 -8 5 -11 43 -11 44 0 50 2 37 12 -13 10 -10 11 16 4 17 -5 34 -7 36 -4 9 8 97 -9 91 -18 -3 -5 19 -8 48 -7 l53 1 -45 7 -45 7 42 1 c23 1 53 -2 67 -7 17 -7 26 -7 29 2 2 7 8 9 12 5 4 -4 2 -35 -4 -69 -8 -47 -7 -68 2 -93 13 -29 10 -66 -8 -109 -5 -12 -3 -17 6 -15 8 2 13 -3 11 -12 -2 -8 -4 -54 -4 -103 0 -51 -3 -85 -9 -82 -5 4 -9 -1 -9 -10 0 -11 5 -15 14 -12 10 4 13 1 10 -8 -3 -8 -9 -13 -12 -12 -8 2 -12 -7 -12 -30 0 -15 2 -16 10 -3 8 12 10 9 10 -12 0 -14 3 -33 6 -42 4 -11 1 -16 -10 -16 -9 0 -16 -8 -16 -20 0 -11 5 -20 10 -20 6 0 9 -17 9 -37 -1 -24 -3 -29 -6 -15 -2 12 -9 22 -14 22 -11 0 -11 -3 1 -34 6 -16 6 -27 0 -31 -6 -4 -10 -18 -9 -33 0 -15 3 -21 6 -14 6 15 33 16 33 2 0 -6 -10 -15 -22 -20 -17 -6 -18 -9 -6 -9 9 -1 19 -5 22 -10 4 -5 -3 -7 -14 -4 -14 4 -20 0 -20 -11 0 -9 8 -16 20 -16 11 0 20 -4 20 -10 0 -5 -7 -10 -16 -10 -8 0 -12 -5 -9 -10 4 -6 1 -17 -5 -25 -10 -12 -10 -15 0 -15 7 0 10 -8 7 -20 -3 -11 -1 -20 5 -20 5 0 8 -6 5 -12 -2 -7 -10 -12 -16 -11 -15 4 -14 -14 2 -20 9 -4 9 -6 0 -6 -20 -1 -15 -21 5 -21 16 -1 16 -1 0 -11 -22 -12 -24 -39 -4 -39 9 0 14 -9 13 -20 -2 -25 -14 -26 -21 -2 -2 9 -2 -1 1 -23 3 -22 10 -45 15 -52 12 -15 2 -33 -18 -33 -20 0 -17 -20 4 -20 16 -1 16 -1 0 -14 -22 -16 -23 -36 -4 -36 8 0 17 -4 20 -9 4 -5 -3 -7 -14 -4 -22 6 -28 -12 -7 -20 9 -4 8 -8 -3 -16 -13 -10 -13 -13 3 -22 11 -6 17 -21 16 -42 0 -18 -3 -26 -6 -19 -8 21 -23 13 -23 -12 0 -18 7 -26 23 -29 l22 -4 -22 -2 c-13 0 -23 -6 -23 -12 0 -5 5 -7 10 -4 6 3 10 -3 10 -15 0 -12 5 -30 11 -42 13 -25 5 -35 -16 -18 -12 10 -15 10 -15 -4 0 -9 7 -19 15 -22 14 -6 13 -8 -2 -20 -11 -8 -13 -13 -5 -14 6 0 12 -5 12 -11 0 -5 -4 -7 -10 -4 -6 4 -10 -6 -10 -24 0 -16 5 -33 10 -36 6 -4 7 -12 3 -18 -4 -7 -8 -41 -8 -76 -1 -54 1 -65 17 -69 20 -5 25 -23 6 -19 -10 1 -13 -28 -13 -120 -1 -99 2 -120 12 -111 10 8 12 7 7 -6 -3 -9 -9 -16 -13 -16 -4 0 -7 -25 -8 -55 -1 -44 2 -55 16 -56 12 0 11 -2 -4 -9 -17 -7 -17 -9 -2 -9 21 -1 23 -21 2 -21 -19 0 -19 -14 1 -34 14 -15 14 -16 -3 -16 -15 0 -16 -2 -3 -10 9 -6 11 -13 5 -17 -11 -9 -16 -73 -6 -73 4 0 12 5 19 12 20 20 14 -2 -8 -29 -11 -15 -18 -29 -15 -32 4 -3 10 1 15 9 8 13 10 12 10 -2 0 -10 -4 -18 -9 -18 -5 0 -11 -7 -14 -14 -4 -10 -1 -13 9 -9 7 3 14 0 14 -6 0 -6 -4 -11 -10 -11 -16 0 -12 -30 5 -36 8 -4 12 -10 9 -15 -3 -5 -10 -7 -15 -4 -5 4 -9 -11 -9 -32 0 -28 3 -34 10 -23 5 8 10 10 10 4 0 -5 -5 -15 -12 -22 -8 -8 -8 -12 -1 -12 14 0 22 -41 12 -66 -4 -10 -8 -13 -8 -6 -1 6 -5 12 -9 12 -5 0 -7 -14 -4 -30 5 -32 21 -41 23 -12 0 9 3 12 5 5 3 -7 0 -21 -6 -32 -7 -14 -7 -21 0 -21 5 0 10 -4 10 -10 0 -5 -8 -10 -17 -10 -15 0 -16 -2 -3 -10 10 -6 11 -10 3 -10 -7 0 -13 -7 -13 -16 0 -8 4 -13 9 -10 11 7 9 -13 -2 -32 -10 -15 2 -102 14 -102 5 0 9 -5 9 -11 0 -5 -4 -7 -10 -4 -6 4 -10 -14 -10 -47 0 -40 3 -49 11 -38 9 13 10 13 6 0 -2 -8 -11 -14 -21 -12 -17 3 -20 -6 -10 -32 3 -9 10 -13 15 -10 14 8 11 -6 -4 -21 -14 -14 -11 -89 3 -80 5 3 6 -4 3 -15 -3 -11 -9 -20 -14 -20 -5 0 -9 -15 -8 -32 0 -18 3 -27 6 -20 10 26 18 10 15 -28 -4 -40 -18 -53 -28 -26 -3 8 -14 16 -25 19 -16 4 -18 3 -8 -9 9 -11 7 -15 -7 -21 -10 -4 -19 -2 -22 5 -2 7 -15 12 -28 12 -13 0 -24 5 -24 10 0 6 -8 10 -17 10 -12 0 -14 -3 -6 -8 8 -5 9 -12 2 -22 -7 -12 -11 -12 -17 -2 -7 10 -24 10 -82 2 -86 -12 -105 -6 -28 9 l53 10 -62 -3 c-35 -1 -63 1 -63 6 0 4 -5 8 -11 8 -6 0 -9 -8 -6 -19 4 -17 2 -17 -25 -4 -24 13 -31 13 -45 1 -15 -11 -16 -11 -10 5 6 15 4 16 -15 6 -12 -6 -37 -8 -60 -5 -22 4 -48 2 -60 -5 -13 -7 -18 -7 -14 -1 3 6 2 13 -4 17 -5 3 -10 -1 -10 -10 0 -15 -1 -15 -16 -1 -8 9 -21 16 -27 16 -7 0 -6 -4 3 -10 22 -14 5 -23 -19 -10 -16 8 -21 8 -21 -1 0 -8 -4 -8 -15 1 -8 7 -22 9 -32 6 -9 -4 -20 -1 -24 6 -7 10 -11 10 -21 0 -6 -6 -26 -12 -42 -11 -27 0 -28 2 -11 9 18 8 18 9 2 9 -10 1 -20 -6 -23 -14 -6 -14 -8 -13 -20 2 -13 17 -13 17 -14 1 0 -20 -20 -25 -20 -5 0 8 -4 7 -10 -3 -6 -9 -10 -11 -10 -3 0 7 -7 10 -15 7 -8 -4 -15 -1 -15 6 0 8 -9 10 -25 6 -17 -4 -25 -2 -25 6 0 10 -2 10 -8 1 -4 -7 -40 -15 -82 -18 -58 -4 -69 -3 -51 5 14 6 31 8 38 6 7 -3 13 -1 13 4 0 6 -28 10 -62 10 -56 0 -60 -1 -42 -15 18 -14 18 -14 -10 -15 -21 0 -27 4 -22 15 4 11 -2 15 -20 15 -19 0 -25 -4 -20 -15 4 -13 -5 -14 -56 -12 -35 2 -64 9 -66 15 -2 7 -15 12 -28 12 -14 0 -22 -4 -19 -10 4 -6 -5 -10 -19 -10 -15 0 -26 6 -26 13 0 10 -10 12 -32 9 -29 -4 -30 -6 -13 -13 15 -7 12 -8 -15 -6 -20 1 -38 8 -42 17 -5 12 -7 12 -7 -2 -1 -22 -21 -24 -21 -3 0 16 -42 17 -57 1 -4 -4 3 -6 16 -4 14 2 26 -3 29 -11 3 -10 0 -12 -12 -8 -10 4 -30 7 -44 7 -21 0 -24 2 -12 10 19 12 20 12 -69 14 -64 2 -71 1 -55 -11 17 -12 17 -13 -2 -12 -10 1 -30 5 -44 9 l-25 8 25 2 c19 2 21 3 7 7 -10 3 -27 -2 -36 -11 -11 -10 -25 -14 -36 -9 -18 6 -18 7 1 14 11 4 -10 7 -48 7 -56 0 -68 -3 -68 -17 -1 -14 -2 -14 -14 2 -7 9 -19 17 -26 17 -10 0 -10 -3 1 -16 11 -14 9 -15 -17 -12 -18 2 -28 8 -26 17 2 11 -12 13 -75 9 -43 -3 -90 -2 -105 3 -21 6 -28 4 -28 -7 0 -9 -10 -14 -27 -14 l-28 1 25 14 c23 12 16 13 -69 9 -52 -2 -100 -9 -107 -15 -13 -11 -18 -6 -15 14 2 14 -40 7 -45 -8 -4 -8 -13 -15 -21 -15 -13 0 -13 2 -2 17 12 15 12 16 -4 10 -10 -4 -24 -7 -30 -7 -7 0 -6 -4 3 -10 12 -8 10 -10 -9 -10 -17 0 -22 4 -17 16 5 13 0 14 -27 9 -17 -3 -42 -11 -54 -17 -30 -15 -43 -1 -18 19 20 15 20 15 -2 8 -41 -12 -113 -15 -113 -5 0 6 -4 10 -10 10 -5 0 -9 -5 -7 -11 3 -16 -72 -18 -101 -3 -26 13 -56 3 -66 -22 -4 -11 29 -12 754 -29 107 -2 413 -7 680 -10 267 -3 645 -8 840 -12 195 -3 466 -6 602 -7 l247 -1 4 165 c2 91 2 431 0 755 -5 956 -5 1065 3 1833 7 717 7 732 -12 732 -10 0 -102 5 -204 10 -102 5 -360 16 -575 25 -214 8 -487 19 -605 25 -118 5 -307 12 -420 15 -113 3 -250 8 -305 10 -376 17 -621 25 -900 31 -176 3 -323 8 -327 10 -4 3 -9 1 -11 -3z m490 -39 c-3 -3 -12 -4 -19 -1 -8 3 -5 6 6 6 11 1 17 -2 13 -5z m153 -4 c0 -5 -4 -10 -9 -10 -6 0 -13 5 -16 10 -3 6 1 10 9 10 9 0 16 -4 16 -10z m225 -10 c-3 -5 -11 -10 -16 -10 -6 0 -7 5 -4 10 3 6 11 10 16 10 6 0 7 -4 4 -10z m52 -6 c-3 -3 -12 -4 -19 -1 -8 3 -5 6 6 6 11 1 17 -2 13 -5z m183 2 c0 -11 -19 -15 -25 -6 -3 5 1 10 9 10 9 0 16 -2 16 -4z m278 -23 c-10 -2 -28 -2 -40 0 -13 2 -5 4 17 4 22 1 32 -1 23 -4z m802 -25 c0 -5 -14 -8 -31 -8 -16 0 -28 3 -26 8 3 4 17 7 31 7 14 0 26 -3 26 -7z m260 -8 c0 -5 -5 -10 -11 -10 -5 0 -7 5 -4 10 3 6 8 10 11 10 2 0 4 -4 4 -10z m87 -6 c-3 -3 -12 -4 -19 -1 -8 3 -5 6 6 6 11 1 17 -2 13 -5z m810 -106 c-3 -8 -6 -5 -6 6 -1 11 2 17 5 13 3 -3 4 -12 1 -19z m3 -44 c0 -8 -5 -12 -10 -9 -6 4 -8 11 -5 16 9 14 15 11 15 -7z m-3410 -1444 c0 -11 -4 -20 -10 -20 -5 0 -10 9 -10 20 0 11 5 20 10 20 6 0 10 -9 10 -20z m-17 -190 c-7 -28 -13 -25 -13 6 0 14 4 23 9 20 5 -3 7 -15 4 -26z m3412 -30 c3 -5 1 -10 -4 -10 -6 0 -11 5 -11 10 0 6 2 10 4 10 3 0 8 -4 11 -10z m9 -209 c3 -5 -1 -11 -9 -15 -9 -3 -15 0 -15 9 0 16 16 20 24 6z m-3434 -211 c0 -5 -4 -10 -10 -10 -5 0 -10 5 -10 10 0 6 5 10 10 10 6 0 10 -4 10 -10z m-43 -1002 c-3 -8 -6 -5 -6 6 -1 11 2 17 5 13 3 -3 4 -12 1 -19z m1160 -194 c-3 -3 -12 -4 -19 -1 -8 3 -5 6 6 6 11 1 17 -2 13 -5z m126 -1 c-7 -2 -21 -2 -30 0 -10 3 -4 5 12 5 17 0 24 -2 18 -5z m442 -3 c3 -5 -1 -10 -9 -10 -9 0 -16 5 -16 10 0 6 4 10 9 10 6 0 13 -4 16 -10z m-728 -6 c-3 -3 -12 -4 -19 -1 -8 3 -5 6 6 6 11 1 17 -2 13 -5z m1910 -20 c-3 -3 -12 -4 -19 -1 -8 3 -5 6 6 6 11 1 17 -2 13 -5z m150 -10 c-3 -3 -12 -4 -19 -1 -8 3 -5 6 6 6 11 1 17 -2 13 -5z m290 0 c-3 -3 -12 -4 -19 -1 -8 3 -5 6 6 6 11 1 17 -2 13 -5z"/> <path d="M161 5554 c0 -11 3 -14 6 -6 3 7 2 16 -1 19 -3 4 -6 -2 -5 -13z"/> <path d="M1160 5535 c-8 -9 -8 -15 -2 -15 6 0 13 -10 15 -22 2 -13 4 -6 4 15 0 42 0 42 -17 22z"/> <path d="M1216 5522 c-2 -4 -7 -54 -10 -112 -4 -58 -9 -127 -11 -155 -17 -184 -66 -1087 -80 -1465 -3 -85 -7 -195 -10 -245 -2 -49 -7 -157 -10 -240 -3 -82 -7 -208 -10 -280 -7 -206 -15 -443 -21 -662 l-5 -203 73 -2 c40 0 84 -2 98 -3 135 -12 1494 -38 2607 -51 l562 -7 2 249 c3 337 3 463 -1 1079 -1 292 1 857 5 1258 l8 727 -49 0 c-27 0 -130 4 -229 10 -99 5 -261 12 -360 15 -99 3 -218 7 -265 10 -89 5 -170 8 -685 25 -170 5 -344 12 -385 15 -41 2 -169 7 -285 11 -115 3 -216 7 -223 10 -7 2 -164 6 -350 10 -185 3 -342 7 -349 9 -7 2 -14 1 -17 -3z m95 -42 c18 0 28 4 24 10 -3 6 -2 10 4 10 5 0 13 -4 16 -10 3 -5 24 -10 46 -10 30 0 38 3 33 13 -5 8 -2 7 9 -2 11 -9 31 -12 56 -8 22 2 43 1 48 -3 13 -13 363 -18 363 -6 0 7 4 6 8 -1 5 -8 61 -14 172 -19 91 -3 168 -8 171 -10 3 -2 20 1 38 6 17 5 29 5 27 1 -3 -4 72 -11 167 -15 95 -4 234 -9 310 -13 113 -5 137 -3 137 8 0 12 2 12 9 0 6 -9 23 -12 55 -10 25 2 46 1 46 -4 0 -4 52 -6 115 -4 71 1 116 -1 119 -8 3 -6 9 -4 15 5 9 12 14 13 31 3 11 -7 40 -13 65 -13 29 0 45 4 45 13 0 9 2 9 8 1 4 -8 44 -12 110 -12 56 -1 123 -4 147 -8 33 -4 45 -3 45 6 0 10 3 10 15 0 11 -9 22 -9 45 -1 18 6 28 6 25 1 -4 -6 30 -11 87 -11 87 -2 261 -8 283 -11 6 -1 21 2 35 6 19 6 21 5 10 -3 -11 -8 -2 -11 38 -11 28 0 52 4 52 9 0 6 40 9 46 2 1 0 -2 -20 -6 -43 -6 -29 -4 -48 3 -57 9 -12 9 -13 0 -7 -8 4 -13 1 -13 -9 0 -9 4 -13 10 -10 6 3 10 -1 10 -9 0 -9 -4 -16 -9 -16 -5 0 -9 -41 -10 -91 -1 -60 2 -88 9 -84 5 3 10 -1 10 -10 0 -9 -4 -13 -10 -10 -5 3 -10 -3 -10 -15 0 -12 4 -18 10 -15 6 3 10 -1 10 -10 0 -9 -4 -14 -9 -11 -5 4 -11 -22 -13 -55 -2 -42 1 -63 9 -66 9 -4 9 -9 0 -25 -10 -17 -9 -22 2 -26 11 -4 11 -6 0 -13 -15 -9 -19 -71 -5 -81 6 -4 6 -12 -1 -20 -14 -18 -21 -598 -7 -620 3 -4 1 -8 -5 -8 -6 0 -10 -37 -9 -95 1 -52 5 -95 10 -95 4 0 3 -9 -4 -20 -11 -17 -10 -22 2 -30 8 -5 10 -10 5 -10 -7 0 -9 -65 -8 -187 2 -104 3 -282 3 -397 0 -140 4 -213 11 -222 8 -9 8 -14 1 -14 -10 0 -7 -84 3 -117 3 -7 0 -13 -5 -13 -6 0 -10 -7 -10 -15 0 -8 5 -15 10 -15 6 0 10 -7 10 -15 0 -8 -4 -15 -9 -15 -6 0 -6 -12 -1 -31 5 -18 7 -35 5 -39 -10 -15 -12 -261 -2 -248 6 9 7 7 3 -6 -13 -39 -18 -324 -6 -345 10 -20 9 -21 -22 -17 -18 3 -43 8 -55 12 -13 3 -23 2 -23 -3 0 -5 -10 -9 -22 -7 -13 1 -23 3 -23 4 0 0 -33 3 -72 5 -50 2 -71 0 -66 -8 4 -7 -2 -8 -18 -3 -13 4 -30 7 -36 7 -50 -3 -447 7 -495 13 -15 1 -29 -2 -31 -8 -3 -8 -12 -7 -28 2 -18 10 -68 12 -187 10 -89 -2 -162 0 -162 5 0 4 -5 7 -11 7 -5 0 -7 -4 -4 -10 3 -5 -1 -10 -9 -10 -9 0 -16 5 -16 11 0 8 -5 7 -16 -2 -13 -10 -17 -10 -24 1 -7 12 -11 11 -26 -1 -13 -11 -18 -11 -21 -1 -6 15 -163 17 -163 2 0 -5 -9 -10 -20 -10 -11 0 -20 4 -20 10 0 6 -92 10 -242 11 -467 2 -736 6 -746 13 -6 3 -13 2 -17 -4 -3 -5 -15 -10 -26 -10 -11 0 -17 4 -14 10 4 6 -10 10 -35 10 -23 0 -39 -4 -36 -8 2 -4 -4 -8 -14 -8 -10 0 -17 3 -14 7 4 6 -222 14 -403 14 -50 -1 -89 3 -87 7 3 4 -6 8 -20 8 -14 0 -26 -4 -26 -9 0 -6 -9 -9 -20 -8 -21 1 -27 21 -9 33 6 4 9 30 7 64 -1 32 0 62 5 66 11 11 9 26 -3 19 -6 -3 -10 3 -10 14 0 12 5 21 11 21 7 0 8 27 4 81 -5 66 -4 80 7 74 7 -3 4 1 -6 9 -11 9 -14 16 -7 16 9 0 11 15 7 57 -3 35 0 63 7 71 8 10 7 16 -4 23 -12 7 -12 9 1 9 13 0 13 1 0 10 -13 9 -13 11 0 20 13 9 13 10 0 10 -11 0 -12 2 -3 8 8 5 9 13 3 22 -13 21 -12 33 2 24 8 -5 9 4 5 34 -4 22 -3 52 3 66 7 20 6 27 -8 35 -9 6 -12 11 -6 11 7 0 15 7 18 16 4 10 2 13 -6 8 -8 -5 -9 -2 -2 12 5 10 8 61 8 112 -1 56 2 88 7 80 6 -9 9 -4 9 15 0 16 -4 26 -10 22 -6 -4 -10 5 -10 19 0 14 5 26 10 26 6 0 10 7 10 15 0 8 -6 15 -12 15 -9 0 -9 3 1 9 12 8 13 14 3 35 -8 18 -8 25 0 23 6 -1 13 4 15 11 3 6 -2 12 -11 12 -18 0 -22 16 -6 22 6 2 13 18 15 36 3 25 0 32 -12 32 -14 0 -14 2 3 14 16 13 17 18 6 35 -7 13 -8 21 -2 21 5 0 10 7 10 16 0 9 -5 12 -12 8 -7 -4 -4 3 7 16 11 13 15 20 9 17 -8 -4 -13 4 -16 23 -3 20 0 30 9 30 16 0 18 87 4 138 -11 37 -5 43 9 10 5 -13 9 -16 9 -8 1 8 -6 28 -14 44 -19 36 -19 42 1 26 13 -12 15 -5 15 66 0 99 6 182 14 203 4 10 3 13 -4 6 -5 -5 -14 -26 -19 -45 l-10 -35 1 41 c1 23 5 40 10 37 4 -2 7 -1 8 4 0 4 2 19 4 33 8 60 8 107 0 120 -5 9 -4 11 3 6 7 -4 12 -1 12 9 0 9 -5 13 -10 10 -6 -4 -10 12 -8 42 1 26 3 42 6 35 2 -7 8 -10 13 -6 15 9 10 24 -8 24 -17 1 -17 1 0 11 9 5 17 17 17 26 0 13 -2 13 -16 2 -14 -12 -16 -11 -12 6 2 11 10 19 16 18 7 -2 12 9 12 27 0 45 0 45 -18 42 -16 -3 -16 -3 -1 10 22 17 35 60 18 56 -7 -2 -14 6 -16 17 -3 15 -2 17 5 6 8 -10 12 -6 17 18 4 21 2 37 -7 48 -10 13 -10 17 0 20 7 3 12 21 11 46 -1 36 -2 38 -9 17 -7 -21 -8 -18 -9 19 -1 34 2 42 14 37 10 -4 15 1 15 15 0 11 -4 18 -9 15 -5 -4 -11 21 -13 53 -1 33 0 57 5 54 4 -2 8 -21 9 -41 1 -29 3 -25 7 18 6 58 5 72 -7 53 -4 -7 -7 8 -6 33 2 57 14 70 15 18 l2 -39 6 40 c4 22 4 45 1 50 -12 21 -5 198 8 202 6 3 12 9 12 14 0 6 -6 7 -12 3 -10 -6 -10 -4 0 7 14 16 16 85 2 94 -14 9 -12 43 2 47 7 3 19 -1 26 -9 7 -7 27 -13 43 -13z m76 14 c-3 -3 -12 -4 -19 -1 -8 3 -5 6 6 6 11 1 17 -2 13 -5z m256 -11 c-7 -2 -21 -2 -30 0 -10 3 -4 5 12 5 17 0 24 -2 18 -5z m514 -19 c-3 -3 -12 -4 -19 -1 -8 3 -5 6 6 6 11 1 17 -2 13 -5z m333 -4 c0 -5 -2 -10 -4 -10 -3 0 -8 5 -11 10 -3 6 -1 10 4 10 6 0 11 -4 11 -10z m-1293 -772 c-3 -7 -5 -2 -5 12 0 14 2 19 5 13 2 -7 2 -19 0 -25z m-12 -78 c3 -5 1 -10 -4 -10 -6 0 -11 5 -11 10 0 6 2 10 4 10 3 0 8 -4 11 -10z m5 -80 c0 -5 -7 -7 -15 -4 -8 4 -15 8 -15 10 0 2 7 4 15 4 8 0 15 -4 15 -10z m-22 -280 c-1 -16 -6 -30 -11 -30 -5 0 -6 7 -3 16 3 9 6 22 6 30 0 8 2 14 5 14 3 0 4 -13 3 -30z m-8 -271 c0 -5 -4 -9 -10 -9 -5 0 -10 7 -10 16 0 8 5 12 10 9 6 -3 10 -10 10 -16z m0 -48 c0 -6 -4 -13 -10 -16 -5 -3 -10 1 -10 9 0 9 5 16 10 16 6 0 10 -4 10 -9z m-23 -163 c-3 -8 -6 -5 -6 6 -1 11 2 17 5 13 3 -3 4 -12 1 -19z m10 -65 c-3 -10 -5 -2 -5 17 0 19 2 27 5 18 2 -10 2 -26 0 -35z m-30 -640 c-3 -10 -5 -4 -5 12 0 17 2 24 5 18 2 -7 2 -21 0 -30z m1100 -909 c-3 -3 -12 -4 -19 -1 -8 3 -5 6 6 6 11 1 17 -2 13 -5z"/> <path d="M1242 5300 c0 -14 2 -19 5 -12 2 6 2 18 0 25 -3 6 -5 1 -5 -13z"/> <path d="M1885 5163 c22 -52 19 -61 -21 -68 -22 -3 -60 -11 -87 -17 -26 -5 -54 -8 -62 -5 -9 4 -12 1 -9 -7 3 -8 17 -16 32 -19 15 -3 36 -13 47 -21 25 -19 11 -31 -46 -40 -49 -8 -77 -45 -61 -80 7 -16 25 -26 65 -36 50 -11 55 -15 46 -31 -8 -15 -19 -18 -64 -14 -30 2 -55 2 -55 -1 0 -2 6 -13 13 -25 10 -17 9 -22 -7 -34 -16 -12 -17 -17 -6 -30 17 -20 30 -19 63 9 l29 23 -26 7 c-27 7 -36 22 -13 24 6 0 29 2 50 3 47 3 52 11 34 49 -13 25 -13 31 -1 41 8 7 13 18 10 25 -3 7 0 15 7 18 9 3 8 8 -3 16 -13 10 -12 11 3 6 10 -3 24 -6 30 -6 7 0 5 -5 -3 -9 -12 -7 -15 -28 -14 -95 2 -87 -3 -98 -30 -71 -8 8 -23 15 -33 14 -16 0 -16 -1 2 -9 17 -6 20 -15 17 -48 -4 -39 -5 -41 -53 -52 -27 -7 -49 -15 -49 -19 0 -3 23 -14 51 -24 51 -18 61 -37 22 -43 -38 -6 -74 -24 -68 -34 3 -5 12 -10 20 -10 20 0 65 -22 65 -31 0 -5 -11 -11 -25 -14 -14 -3 -36 -7 -50 -10 -14 -3 -31 -18 -41 -36 -15 -30 -15 -32 7 -55 16 -17 33 -24 61 -24 35 0 38 -2 38 -28 0 -25 -6 -30 -50 -46 -50 -18 -66 -36 -32 -36 29 0 132 -39 218 -83 l81 -41 48 28 47 28 -53 20 c-123 44 -147 50 -217 51 -60 2 -69 4 -55 15 9 6 29 12 44 12 15 0 31 5 34 10 9 15 10 93 2 107 -4 6 -3 14 2 18 6 3 10 48 10 100 -1 51 1 97 4 102 3 4 8 93 11 197 4 105 9 192 11 195 1 3 -3 12 -11 19 -16 14 -16 14 -18 -45 -1 -18 -5 -33 -9 -33 -4 0 -12 0 -18 0 -7 0 -9 11 -6 30 5 23 2 32 -13 40 -11 6 -20 16 -20 22 0 7 5 6 15 -2 9 -7 15 -8 15 -2 0 13 59 21 67 9 7 -11 61 -1 80 14 21 18 15 46 -18 73 -36 31 -65 35 -54 9z m54 -51 c-1 -15 -2 -15 -6 1 -2 9 -9 14 -15 11 -7 -4 -8 -2 -4 5 10 15 26 4 25 -17z m-143 -180 c-3 -32 -7 -37 -27 -34 -28 3 -40 20 -33 47 5 20 5 20 -10 1 -9 -11 -19 -16 -23 -13 -11 12 26 32 63 34 34 2 34 1 30 -35z m-66 -28 c0 -2 -7 -4 -15 -4 -8 0 -15 4 -15 10 0 5 7 7 15 4 8 -4 15 -8 15 -10z m80 -84 c0 -5 -5 -10 -11 -10 -5 0 -7 5 -4 10 3 6 8 10 11 10 2 0 4 -4 4 -10z m26 -94 c2 -24 1 -24 -18 -6 -11 10 -17 23 -14 29 11 17 31 2 32 -23z m-19 -30 c-4 -10 -1 -13 9 -9 12 4 13 1 5 -20 -5 -14 -7 -28 -4 -31 4 -3 2 -6 -3 -6 -5 0 -10 -9 -10 -20 0 -12 5 -19 12 -16 7 3 10 -3 7 -15 -4 -14 -13 -18 -38 -16 -31 2 -40 17 -10 17 15 0 27 25 17 35 -4 4 -7 12 -7 18 0 7 -4 12 -10 12 -5 0 -19 6 -30 14 -17 10 -17 12 -2 7 19 -6 47 14 47 33 0 6 5 11 11 11 6 0 9 -7 6 -14z m-6 -163 c1 -10 1 -24 0 -30 -1 -7 4 -13 11 -13 9 0 9 -3 -2 -11 -11 -7 -12 -12 -3 -15 15 -7 5 -34 -12 -34 -10 0 -11 7 -5 30 5 17 5 30 0 30 -4 0 -6 9 -3 21 4 12 0 25 -8 30 -11 7 -10 9 4 9 9 0 18 -8 18 -17z m-31 -93 c0 -22 5 -40 11 -40 5 0 7 4 4 10 -3 6 1 7 10 4 9 -4 14 -13 11 -20 -3 -8 0 -14 7 -14 7 0 4 -5 -7 -11 -15 -9 -16 -13 -5 -20 12 -8 12 -11 -1 -19 -12 -8 -16 -3 -20 27 -4 31 -10 38 -37 45 -25 7 -33 14 -33 31 0 28 17 47 42 47 14 0 18 -8 18 -40z m-70 10 c0 -5 -6 -9 -12 -7 -7 1 -12 -4 -10 -11 1 -8 -2 -11 -7 -7 -14 8 -2 35 15 35 8 0 14 -4 14 -10z m105 -190 c3 -5 -1 -10 -10 -10 -9 0 -13 5 -10 10 3 6 8 10 10 10 2 0 7 -4 10 -10z m84 -16 c6 4 11 3 11 -2 0 -8 46 -22 83 -26 4 -1 7 -5 6 -10 0 -5 5 -13 13 -17 10 -7 9 -9 -4 -9 -9 0 -19 -6 -22 -12 -4 -7 -4 -3 -2 10 4 22 -8 30 -19 12 -4 -6 -13 -5 -25 2 -10 7 -16 16 -13 22 3 5 1 6 -5 2 -15 -9 -52 15 -52 34 0 12 2 13 9 1 5 -7 14 -10 20 -7z"/> <path d="M3968 5006 c-23 -17 -23 -29 0 -49 20 -19 37 -23 27 -7 -3 6 1 7 9 4 21 -8 20 -31 -1 -37 -10 -3 -39 -8 -65 -12 -27 -3 -48 -10 -48 -16 0 -5 3 -9 8 -10 15 -1 40 -7 61 -14 18 -5 21 -14 21 -65 0 -64 -10 -79 -34 -54 -19 18 -20 26 -6 40 8 8 7 14 -3 22 -10 9 -19 5 -40 -14 -15 -14 -27 -31 -27 -39 0 -18 28 -34 50 -28 10 3 21 0 25 -6 3 -6 3 -11 -2 -10 -16 4 -60 -20 -67 -36 -10 -28 -7 -34 24 -50 37 -19 71 -19 96 1 10 8 13 13 7 9 -7 -3 -13 -1 -13 4 0 6 5 11 11 11 5 0 7 6 3 12 -17 27 -12 88 7 88 12 0 12 -37 -1 -61 -7 -11 -7 -19 -1 -19 5 0 12 6 14 13 3 6 4 -1 2 -18 -1 -16 3 -33 9 -37 7 -5 4 -8 -6 -8 -10 0 -18 -5 -18 -11 0 -5 5 -7 10 -4 6 3 10 2 10 -3 0 -6 -7 -13 -17 -16 -14 -6 -14 -8 3 -22 14 -12 15 -14 3 -11 -14 4 -15 -1 -9 -33 4 -22 3 -43 -2 -48 -7 -7 -2 -12 11 -17 26 -8 27 -27 2 -49 -22 -20 -20 -59 4 -83 16 -15 15 -18 -16 -34 -20 -10 -38 -14 -43 -9 -12 12 13 42 28 33 8 -4 8 -3 0 6 -9 10 -22 8 -60 -9 -38 -16 -45 -23 -34 -30 8 -5 22 -10 31 -10 9 0 22 -6 28 -14 16 -19 3 -96 -15 -96 -8 0 -14 -4 -14 -10 0 -5 20 -10 44 -10 52 0 56 7 56 91 0 53 2 59 20 59 24 0 81 27 92 44 16 23 7 49 -29 82 -20 19 -47 37 -61 41 -22 5 -24 10 -18 42 3 20 6 53 6 73 0 34 4 39 36 53 55 23 75 52 70 103 -4 46 -18 63 -74 88 -29 13 -33 19 -30 47 3 32 4 32 61 35 77 4 79 28 3 37 -39 5 -64 15 -88 36 -26 22 -29 28 -15 29 10 0 15 -4 12 -10 -8 -13 11 -13 37 1 17 9 18 13 7 20 -21 13 -72 10 -91 -5z m17 -26 c3 -5 1 -10 -4 -10 -6 0 -11 5 -11 10 0 6 2 10 4 10 3 0 8 -4 11 -10z m59 -65 c-4 -8 -10 -15 -15 -15 -10 0 -6 -67 6 -95 8 -18 7 -19 -10 -5 -17 14 -18 14 -7 -7 7 -12 8 -24 3 -27 -12 -8 -19 28 -17 81 2 36 0 40 -13 30 -12 -9 -13 -9 -7 1 4 7 2 12 -6 13 -7 0 2 5 20 10 17 5 32 14 32 19 0 6 4 10 10 10 5 0 7 -7 4 -15z m37 -146 c6 -12 9 -32 6 -45 -2 -13 0 -24 5 -24 5 0 2 -7 -7 -16 -9 -9 -14 -22 -12 -28 3 -7 -4 -12 -14 -12 -17 0 -19 8 -19 73 0 57 3 73 15 73 8 0 19 -10 26 -21z m-178 -6 c-5 -12 -3 -14 7 -8 9 6 11 4 5 -4 -5 -9 -11 -9 -17 -3 -6 6 -7 15 -4 21 11 17 16 13 9 -6z m226 -47 c-12 -13 -34 8 -25 23 5 8 11 7 21 -2 8 -7 10 -16 4 -21z m-157 -78 c-23 -23 -54 19 -34 48 17 25 37 21 40 -9 2 -16 -1 -34 -6 -39z m152 47 c-4 -8 -10 -15 -15 -15 -4 0 -6 7 -3 15 4 8 10 15 15 15 4 0 6 -7 3 -15z m-40 -291 c3 -9 3 -21 -1 -27 -4 -7 0 -8 13 -4 12 5 8 -2 -11 -18 -16 -14 -33 -25 -37 -25 -14 0 -25 64 -14 77 16 17 43 16 50 -3z m-69 -122 c-14 -9 -17 -50 -4 -57 14 -10 11 -25 -5 -19 -9 3 -13 -1 -13 -12 1 -9 -5 -19 -13 -21 -13 -4 -13 -3 0 6 12 9 13 12 1 20 -9 6 -10 11 -2 15 6 4 11 20 11 35 0 30 7 41 24 41 8 0 8 -3 1 -8z"/> <path d="M2790 4858 c-1 -36 -4 -101 -9 -176 -1 -10 -5 -10 -17 2 -9 10 -13 24 -9 36 8 26 -3 80 -17 80 -6 0 -8 -15 -6 -33 2 -20 -2 -39 -9 -46 -18 -17 -16 -72 5 -98 23 -30 58 -41 104 -33 67 13 97 67 66 123 -7 12 -11 34 -9 50 3 37 -16 35 -24 -3 -5 -22 -1 -39 11 -57 12 -19 13 -28 6 -31 -7 -2 -9 -14 -6 -29 6 -23 4 -24 -16 -18 -15 5 -20 4 -16 -4 9 -14 -52 -7 -67 8 -6 6 -19 11 -28 11 -10 0 -21 5 -25 12 -5 8 -2 9 10 5 14 -6 17 -3 12 9 -5 14 -4 15 8 5 31 -26 67 30 43 67 -6 8 -4 12 5 10 20 -4 28 -21 17 -35 -6 -7 -8 -17 -4 -23 4 -6 -1 -18 -11 -26 -18 -14 -17 -14 4 -4 13 6 30 9 37 6 7 -2 19 2 26 10 11 13 9 14 -14 9 -31 -8 -31 -6 -16 62 11 45 9 53 -15 101 -14 29 -29 52 -31 52 -3 0 -5 -19 -5 -42z m37 -83 c-4 -8 -14 -15 -23 -15 -16 0 -16 2 1 20 20 22 31 20 22 -5z m-38 -174 c-6 -2 -18 4 -27 13 -15 15 -15 15 10 4 15 -7 23 -15 17 -17z"/> <path d="M3509 4851 c-51 -16 -69 -31 -69 -57 0 -34 50 -55 116 -48 27 3 50 7 52 9 2 2 5 18 6 36 3 39 21 49 32 17 19 -57 15 -61 -89 -88 -53 -13 -97 -27 -97 -30 0 -7 51 -30 67 -30 12 0 15 -8 12 -27 -1 -5 -22 -16 -46 -25 -41 -15 -72 -41 -73 -60 0 -4 10 -12 21 -19 18 -9 25 -7 44 15 32 37 73 56 109 49 44 -8 56 -21 56 -59 0 -34 -11 -47 -43 -49 -37 -3 -40 -22 -4 -29 125 -23 162 112 42 155 -33 12 -36 16 -33 48 3 35 11 42 63 58 61 18 56 95 -8 125 -36 16 -119 21 -158 9z m90 -28 c-6 -7 -8 -16 -6 -21 9 -13 -9 -35 -22 -28 -18 11 -13 26 7 20 16 -5 16 -5 0 6 -21 13 -13 39 12 37 14 -1 16 -4 9 -14z m-51 -20 c-3 -32 -25 -37 -42 -10 -8 14 -8 20 4 27 28 18 41 11 38 -17z m-64 3 c-3 -8 -13 -17 -22 -21 -13 -5 -13 -2 3 15 21 24 26 25 19 6z m202 -9 c1 -7 5 -20 9 -29 4 -11 -1 -20 -17 -29 -22 -12 -23 -11 -5 8 9 11 15 22 12 25 -3 3 -8 16 -10 28 -2 12 -1 20 2 16 4 -4 8 -12 9 -19z m-93 -128 c-3 -22 -13 -40 -26 -49 -20 -12 -21 -12 -8 4 12 14 11 19 -8 35 -21 18 -30 37 -12 26 5 -3 13 0 16 6 4 5 13 8 21 5 8 -3 14 0 14 6 0 6 2 9 4 7 2 -2 1 -20 -1 -40z m12 -59 c3 -6 -1 -7 -9 -4 -18 7 -21 14 -7 14 6 0 13 -4 16 -10z m86 -51 c1 -5 1 -18 1 -29 0 -36 -2 -41 -12 -35 -12 8 -9 37 5 47 6 5 6 8 -1 8 -7 0 -14 7 -17 14 -4 10 -1 13 9 9 7 -3 15 -9 15 -14z"/> <path d="M3445 4731 c-3 -5 -2 -12 3 -15 5 -3 9 1 9 9 0 17 -3 19 -12 6z"/> <path d="M3972 4590 c-10 -17 -19 -19 -57 -13 -45 6 -56 -2 -33 -25 9 -9 8 -15 -7 -26 -19 -14 -19 -15 7 -27 24 -10 30 -9 51 11 13 13 28 22 32 22 4 -1 7 -45 6 -97 -2 -78 1 -95 12 -95 11 0 14 10 12 40 -2 21 -6 44 -10 50 -4 6 1 22 9 35 9 14 12 25 7 25 -5 0 -7 9 -4 20 3 12 -1 22 -11 26 -9 3 -16 14 -16 23 0 13 2 13 9 2 6 -9 10 -4 13 18 5 36 -2 40 -20 11z m-18 -41 c-6 -11 -41 -12 -48 -1 -2 4 9 8 25 8 16 1 26 -2 23 -7z"/> <path d="M2753 4527 c-114 -42 -152 -187 -69 -261 84 -75 183 -68 246 17 33 46 37 72 16 141 -15 49 -41 78 -93 102 -38 16 -56 17 -100 1z m75 -18 c-9 -6 -7 -9 8 -9 12 0 24 -7 28 -15 3 -8 12 -15 21 -15 22 0 18 -15 -7 -29 -22 -11 -6 -8 29 6 10 4 14 3 10 -4 -4 -6 -1 -14 5 -16 7 -3 2 -6 -12 -7 -41 -4 -45 -5 -50 -15 -3 -5 3 -11 13 -13 9 -2 17 1 17 6 0 5 12 9 28 9 26 0 26 0 5 -10 -13 -5 -23 -14 -23 -19 0 -5 4 -7 9 -4 5 3 15 -1 22 -10 10 -13 10 -17 -2 -25 -8 -5 -10 -9 -5 -9 6 0 -4 -11 -22 -23 -17 -13 -29 -27 -26 -30 8 -7 -21 -37 -35 -37 -6 0 -11 7 -11 15 0 8 -4 15 -9 15 -4 0 -6 -11 -3 -25 2 -14 0 -25 -6 -25 -17 0 -24 18 -10 24 7 3 1 4 -14 1 -19 -4 -28 -1 -28 7 0 9 -3 9 -10 -2 -7 -12 -13 -9 -35 14 -14 15 -23 31 -20 36 3 4 -5 10 -16 13 -25 7 -22 40 4 45 19 4 24 -14 5 -21 -7 -2 -5 -3 4 -2 22 4 44 -21 26 -28 -9 -4 -7 -6 4 -6 9 -1 19 -9 21 -18 4 -15 5 -14 6 3 0 11 -8 29 -18 38 -11 10 -17 24 -14 32 4 11 11 9 29 -11 27 -29 37 -31 59 -9 19 19 16 45 -5 52 -13 5 -13 3 -1 -12 12 -14 12 -18 -4 -30 -16 -11 -22 -9 -46 13 -15 14 -25 29 -21 33 12 12 76 17 88 7 8 -6 14 -4 17 5 5 11 -4 14 -38 14 -24 0 -49 3 -55 7 -5 3 -10 0 -10 -8 0 -15 -34 -29 -44 -19 -13 12 -5 34 10 28 8 -3 12 -2 9 4 -3 6 -1 10 5 10 6 0 8 5 5 11 -4 6 -14 8 -22 5 -8 -3 -11 -1 -8 4 9 15 34 12 51 -5 16 -16 89 -21 80 -6 -3 4 -17 6 -30 4 -27 -6 -76 30 -57 41 6 4 21 -2 33 -13 12 -12 27 -21 32 -21 6 0 4 6 -5 13 -9 7 -14 18 -11 26 3 8 0 11 -7 7 -6 -4 -11 -3 -11 2 0 5 18 9 41 9 26 0 36 -3 27 -8z m-151 -135 c-9 -9 -28 6 -21 18 4 6 10 6 17 -1 6 -6 8 -13 4 -17z m37 -5 c-3 -5 -10 -7 -15 -3 -5 3 -7 10 -3 15 3 5 10 7 15 3 5 -3 7 -10 3 -15z m200 -74 c-4 -8 -11 -15 -16 -15 -6 0 -5 6 2 15 7 8 14 15 16 15 2 0 1 -7 -2 -15z"/> <path d="M2816 4481 c-3 -5 1 -11 9 -15 8 -3 15 -1 15 4 0 13 -18 22 -24 11z"/> <path d="M2830 4439 c0 -5 5 -7 10 -4 6 3 10 8 10 11 0 2 -4 4 -10 4 -5 0 -10 -5 -10 -11z"/> <path d="M2767 4383 c-11 -11 -8 -20 7 -20 8 0 12 6 9 14 -6 15 -7 15 -16 6z"/> <path d="M2841 4380 c4 -34 -2 -60 -12 -57 -6 1 -14 -4 -16 -10 -3 -7 2 -13 10 -13 9 0 19 9 22 20 8 25 21 26 35 3 9 -15 10 -14 4 6 -5 19 -3 23 10 18 9 -4 16 -1 16 4 0 6 -9 9 -20 6 -13 -3 -25 2 -36 16 -10 14 -15 17 -13 7z"/> <path d="M2846 4285 c-3 -8 -1 -15 4 -15 6 0 10 7 10 15 0 8 -2 15 -4 15 -2 0 -6 -7 -10 -15z"/> <path d="M2780 4280 c-13 -8 -12 -10 3 -10 9 0 17 5 17 10 0 12 -1 12 -20 0z"/> <path d="M3990 4443 c0 -5 4 -14 9 -21 6 -10 10 -10 21 3 11 13 10 14 -5 9 -13 -5 -16 -4 -11 4 4 7 2 12 -3 12 -6 0 -11 -3 -11 -7z"/> <path d="M3559 4403 c-10 -2 -19 -20 -24 -46 -4 -23 -9 -36 -12 -29 -3 7 -25 12 -60 12 -46 0 -56 3 -60 19 -6 22 -34 33 -54 20 -11 -6 -9 -14 7 -36 19 -25 27 -28 83 -28 33 0 61 -3 61 -7 0 -5 18 -8 40 -8 46 0 63 22 58 72 -3 32 -11 39 -39 31z m21 -44 c0 -5 -4 -7 -10 -4 -5 3 -10 -1 -10 -9 0 -8 -4 -17 -9 -20 -4 -3 -6 6 -3 19 4 24 32 36 32 14z"/> <path d="M1182 4380 c0 -14 2 -19 5 -12 2 6 2 18 0 25 -3 6 -5 1 -5 -13z"/> <path d="M2570 4290 c0 -22 49 -119 71 -140 56 -53 166 -76 234 -50 51 20 94 59 120 110 38 75 30 85 -24 30 -27 -27 -61 -52 -75 -56 -39 -9 -31 -24 9 -17 39 6 43 2 18 -18 -11 -10 -14 -10 -9 -1 4 6 2 12 -3 12 -6 0 -11 -7 -11 -16 0 -8 -4 -12 -10 -9 -5 3 -10 1 -10 -5 0 -7 -6 -8 -19 0 -11 5 -30 9 -43 9 -20 -1 -21 -2 -3 -6 11 -3 22 -8 25 -11 3 -4 3 -6 1 -5 -2 2 -11 -3 -19 -10 -12 -9 -16 -9 -19 0 -3 8 -16 10 -36 7 -26 -5 -29 -3 -17 6 12 9 10 11 -11 6 -30 -7 -84 28 -72 47 4 7 0 8 -13 3 -10 -4 -15 -4 -11 0 4 4 -1 13 -11 20 -16 12 -16 13 2 10 11 -1 26 -12 35 -23 25 -30 81 -58 65 -32 -3 6 6 3 22 -7 20 -14 29 -15 32 -6 2 6 20 12 39 12 60 0 26 14 -38 16 -50 1 -68 7 -115 38 -31 21 -63 51 -72 67 -17 29 -32 38 -32 19z m390 -94 c0 -3 -4 -8 -10 -11 -5 -3 -10 -1 -10 4 0 6 5 11 10 11 6 0 10 -2 10 -4z"/> <path d="M3489 4137 c-25 -7 -57 -19 -70 -28 l-24 -17 28 -13 c24 -11 31 -10 55 8 34 25 79 37 88 22 3 -6 1 -16 -5 -22 -8 -8 -11 -6 -11 7 0 9 -4 14 -10 11 -5 -3 -10 -19 -10 -34 0 -24 -5 -29 -49 -40 -27 -7 -57 -18 -67 -25 -16 -13 -17 -15 -2 -30 22 -21 34 -20 65 4 41 32 55 26 51 -22 -3 -39 -6 -42 -46 -57 -23 -8 -41 -20 -39 -25 2 -5 39 -21 83 -36 43 -15 102 -39 131 -53 29 -15 58 -27 65 -27 14 0 74 48 67 53 -8 6 -146 47 -192 57 -32 7 -54 7 -66 0 -14 -7 -22 -5 -32 7 -12 14 -11 15 10 8 15 -4 21 -3 17 3 -3 5 0 10 7 9 60 -2 57 -8 57 128 l0 125 -27 -1 c-16 0 -49 -6 -74 -12z m-9 -22 c0 -2 -10 -9 -22 -15 -22 -11 -22 -10 -4 4 21 17 26 19 26 11z m95 -54 c-3 -6 -11 -8 -17 -5 -6 4 -5 9 3 15 16 10 23 4 14 -10z m-5 -31 c0 -5 -4 -10 -10 -10 -5 0 -10 -5 -10 -11 0 -5 3 -8 8 -6 4 3 8 -6 8 -19 1 -13 -2 -24 -7 -24 -5 0 -9 9 -9 19 0 11 -4 22 -10 26 -13 8 -1 35 16 35 8 0 14 -4 14 -10z m-100 -29 c0 -5 -9 -11 -21 -14 -16 -4 -18 -3 -8 9 13 16 29 19 29 5z m96 -76 c-3 -9 -10 -13 -16 -10 -6 4 -5 11 3 20 15 16 22 11 13 -10z m126 -104 c13 -5 32 -12 43 -16 16 -5 17 -8 5 -15 -19 -12 -33 -13 -26 -1 4 5 -4 7 -16 3 -14 -3 -19 -2 -14 6 7 11 -11 17 -41 13 -7 -1 -13 3 -13 9 0 12 31 13 62 1z"/> <path d="M2340 3968 c-1 -46 -3 -125 -7 -175 -3 -63 -2 -93 5 -93 6 0 13 4 17 9 3 6 17 6 36 -1 23 -8 33 -7 42 2 9 10 7 11 -12 5 -15 -5 -21 -4 -17 3 3 6 1 14 -5 18 -8 4 -9 3 -5 -4 4 -7 3 -12 -2 -12 -5 0 -12 9 -15 20 -3 11 -1 18 3 15 5 -3 11 -1 15 5 10 17 38 12 31 -5 -8 -21 20 -31 39 -15 13 11 14 10 9 -3 -3 -10 2 -20 15 -27 28 -14 27 -38 -1 -43 -23 -4 -23 -4 2 -15 14 -6 19 -11 12 -11 -7 -1 -10 -6 -7 -11 16 -25 32 12 32 75 1 60 -7 79 -22 56 -6 -10 -51 -8 -62 2 -3 4 8 7 25 7 22 0 32 5 32 15 0 8 -4 15 -10 15 -5 0 -10 5 -10 10 0 19 21 10 29 -12 14 -39 23 -1 27 112 2 59 5 114 6 121 2 11 -20 15 -99 17 l-103 3 0 -83z m85 58 c65 1 70 -2 49 -34 -12 -18 -13 -23 -3 -15 11 9 18 8 32 -1 25 -19 21 -26 -12 -20 -17 4 -32 1 -36 -6 -5 -7 -1 -11 11 -10 40 5 44 1 41 -40 -2 -22 1 -40 5 -40 5 0 6 -4 3 -10 -3 -5 -1 -10 5 -10 6 0 8 -4 5 -10 -10 -16 -25 -12 -25 6 0 11 -5 14 -16 10 -9 -4 -23 -1 -30 5 -7 6 -19 9 -26 6 -7 -3 -4 -6 7 -6 16 -1 17 -3 5 -11 -12 -7 -12 -12 -2 -22 9 -9 12 -8 12 6 0 25 17 11 22 -19 4 -17 1 -25 -8 -25 -8 0 -14 6 -14 13 0 9 -3 8 -9 -2 -5 -7 -14 -10 -20 -7 -6 4 -25 1 -41 -8 -25 -12 -30 -12 -30 -1 0 8 8 20 18 27 10 7 22 20 27 28 7 13 6 13 -7 2 -12 -10 -18 -10 -23 -2 -14 23 -8 98 9 125 16 24 16 28 2 44 -9 10 -16 24 -16 32 0 8 3 10 8 4 4 -5 30 -10 57 -9z m95 -31 c0 -8 -4 -15 -9 -15 -13 0 -22 16 -14 24 11 11 23 6 23 -9z m-151 -24 c-15 -5 -22 6 -14 19 6 9 10 9 16 -1 5 -8 4 -15 -2 -18z m-9 -231 c0 -5 -5 -10 -11 -10 -5 0 -7 5 -4 10 3 6 8 10 11 10 2 0 4 -4 4 -10z m155 -10 c3 -5 -1 -10 -9 -10 -9 0 -16 5 -16 10 0 6 4 10 9 10 6 0 13 -4 16 -10z"/> <path d="M2430 3989 c0 -18 2 -19 15 -9 15 12 12 30 -6 30 -5 0 -9 -10 -9 -21z"/> <path d="M2428 3948 c-3 -7 -17 -12 -32 -10 -16 1 -25 -2 -21 -8 4 -6 10 -8 15 -5 4 3 10 2 12 -2 8 -20 70 -62 83 -57 25 10 17 21 -21 28 -32 6 -34 9 -22 24 11 15 11 15 -3 5 -9 -7 -19 -10 -22 -6 -4 3 1 12 11 19 9 7 14 15 11 19 -4 3 -9 0 -11 -7z"/> <path d="M2466 3914 c-5 -12 -2 -15 10 -10 8 3 18 6 20 6 3 0 2 5 -1 10 -9 15 -22 12 -29 -6z"/> <path d="M2390 3880 c8 -5 22 -10 30 -10 13 0 13 1 0 10 -8 5 -22 10 -30 10 -13 0 -13 -1 0 -10z"/> <path d="M2378 3858 c5 -5 16 -8 23 -6 8 3 3 7 -10 11 -17 4 -21 3 -13 -5z"/> <path d="M2405 3810 c3 -5 10 -10 16 -10 5 0 9 5 9 10 0 6 -7 10 -16 10 -8 0 -12 -4 -9 -10z"/> <path d="M2600 4046 c0 -3 42 -33 93 -67 l92 -61 45 26 c25 14 69 38 98 53 28 15 52 31 52 35 0 4 -60 8 -132 9 -73 0 -159 3 -190 5 -32 3 -58 3 -58 0z m115 -33 c11 -14 16 -15 28 -5 21 18 139 12 145 -7 3 -8 0 -11 -6 -7 -6 3 -23 -5 -38 -19 -20 -18 -30 -22 -40 -15 -8 8 -14 8 -19 0 -10 -16 -23 -12 -30 10 -5 16 -12 19 -27 14 -14 -4 -18 -2 -14 5 4 6 3 11 -2 11 -6 0 -12 7 -16 15 -7 20 4 19 19 -2z"/> <path d="M3051 4031 c-10 -7 -14 -59 -17 -242 -2 -163 0 -229 7 -216 5 9 7 22 4 27 -3 6 1 10 10 10 13 0 15 -6 10 -30 -7 -31 -3 -34 30 -20 14 6 15 9 5 9 -9 1 -16 9 -16 20 0 17 2 18 25 3 23 -16 24 -16 12 5 -10 19 -8 22 12 26 12 2 1 2 -24 0 -30 -3 -50 0 -54 8 -6 9 -1 10 19 5 23 -6 29 -3 33 14 3 12 11 19 19 16 7 -3 15 0 18 7 2 7 5 2 5 -10 1 -24 25 -22 35 2 7 20 -24 51 -35 34 -6 -10 -11 -10 -25 1 -15 14 -15 15 7 21 23 7 23 7 2 8 -29 1 -40 -19 -19 -35 16 -11 16 -13 -3 -19 -12 -4 -18 -12 -14 -21 6 -16 2 -17 -21 -8 -9 3 -16 12 -16 20 0 8 -3 14 -7 14 -5 0 -8 11 -8 25 0 20 4 24 20 19 19 -5 19 -4 3 9 -22 18 -12 30 14 16 11 -6 22 -8 26 -5 3 3 1 6 -4 6 -5 0 -18 7 -29 16 -17 13 -18 16 -5 24 13 8 12 10 -2 10 -10 0 -18 5 -18 11 0 5 6 7 13 3 6 -4 9 -4 5 1 -4 4 -3 14 4 22 8 10 8 12 -3 8 -10 -4 -14 5 -16 30 -1 19 2 35 6 35 3 0 8 11 9 26 1 17 -2 23 -10 18 -7 -4 -8 -3 -4 4 4 7 29 12 57 12 28 0 49 5 49 11 0 6 9 8 20 4 16 -5 19 -3 13 12 -6 17 -6 17 10 1 9 -9 17 -21 17 -26 0 -8 -28 -25 -62 -36 -18 -5 -15 -36 4 -36 5 0 7 -4 4 -9 -3 -5 -16 -7 -29 -5 -18 4 -19 3 -4 -4 17 -7 17 -9 3 -21 -23 -20 -20 -40 5 -34 13 4 17 8 9 13 -8 5 -7 9 5 14 9 3 14 10 11 15 -3 5 1 14 9 21 19 16 19 31 0 24 -8 -4 -15 -2 -15 4 0 16 38 21 50 7 8 -10 7 -14 -2 -18 -10 -4 -9 -6 1 -6 11 -1 10 -5 -5 -16 -17 -13 -17 -14 -1 -15 30 0 18 -19 -23 -37 -23 -10 -38 -23 -36 -30 6 -14 -25 -5 -36 11 -4 6 -10 7 -15 3 -4 -5 -1 -12 7 -18 12 -7 13 -11 2 -18 -8 -5 10 -8 46 -7 44 1 59 -2 59 -12 0 -10 -11 -13 -39 -10 -50 5 -49 -8 2 -16 27 -4 40 -11 40 -22 0 -8 -4 -12 -10 -9 -13 8 0 -28 14 -37 7 -5 7 -8 -2 -8 -9 0 -11 -7 -7 -19 3 -11 1 -22 -5 -26 -8 -5 -7 -11 1 -22 11 -13 7 -14 -27 -9 l-39 5 38 -11 c33 -10 53 -38 26 -38 -5 0 -7 5 -4 10 3 6 1 10 -4 10 -6 0 -11 -4 -11 -9 0 -17 -35 -17 -47 -1 -10 13 -11 11 -6 -8 3 -13 11 -21 18 -18 8 3 26 1 42 -4 15 -4 22 -9 14 -9 -11 -1 -11 -4 -1 -16 10 -12 10 -19 2 -27 -13 -13 -46 -2 -37 12 3 5 2 10 -3 10 -16 0 -22 -13 -11 -27 9 -10 8 -13 -4 -13 -8 0 -17 4 -19 10 -2 5 -17 6 -40 1 -29 -7 -35 -6 -31 5 3 8 14 14 26 14 30 0 16 9 -21 14 l-30 3 -4 -63 c-3 -59 -1 -64 17 -64 15 0 17 2 6 9 -8 5 -11 16 -8 25 8 20 51 13 81 -13 18 -15 19 -15 13 1 -3 10 0 19 9 22 22 8 26 7 19 -4 -13 -21 12 -9 37 18 l25 27 2 255 c1 140 4 270 7 288 l6 32 -75 0 c-41 0 -81 2 -89 5 -7 3 -19 1 -27 -4z m39 -21 c0 -5 9 -10 20 -10 11 0 20 5 20 10 0 6 5 10 11 10 6 0 9 -8 7 -17 -2 -12 -14 -18 -39 -20 -30 -3 -38 1 -42 17 -3 13 0 20 9 20 8 0 14 -4 14 -10z m117 -200 c1 -15 -4 -20 -23 -20 -13 0 -24 5 -24 10 0 6 7 10 15 10 8 0 15 5 15 10 0 19 16 10 17 -10z m-32 -129 c3 -5 1 -12 -4 -15 -5 -3 -11 1 -15 9 -6 16 9 21 19 6z m22 -246 c-4 -11 -72 -17 -104 -10 -46 11 -21 23 42 21 36 0 64 -5 62 -11z"/> <path d="M1840 3970 c0 -5 5 -21 12 -35 6 -14 9 -28 6 -31 -5 -4 -168 -34 -190 -34 -22 0 -4 -19 24 -25 40 -9 68 -26 68 -42 0 -6 -25 -17 -55 -24 -61 -13 -69 -24 -27 -32 52 -11 82 -26 76 -40 -2 -7 -38 -24 -79 -38 -78 -25 -88 -36 -55 -57 17 -10 25 -9 45 4 14 9 23 19 21 23 -2 3 6 7 19 7 42 3 84 71 55 89 -8 5 -7 12 2 23 12 15 11 16 -5 3 -9 -8 -20 -11 -24 -7 -9 9 28 35 50 36 17 0 23 -11 10 -23 -3 -4 -6 -38 -5 -77 1 -75 -11 -99 -24 -47 -7 31 -8 31 -13 -18 -5 -45 -9 -50 -36 -55 -45 -10 -125 -47 -125 -59 0 -11 32 -31 49 -31 6 0 20 9 31 20 11 11 31 22 45 26 24 6 25 4 25 -40 l0 -45 -50 -7 c-31 -4 -49 -11 -47 -18 2 -6 10 -11 18 -11 8 0 17 -4 20 -8 3 -5 25 -9 48 -10 23 -1 41 -6 41 -12 0 -5 -3 -10 -7 -10 -5 -1 -22 -9 -40 -18 -18 -9 -43 -17 -58 -17 -41 0 -29 -17 26 -35 58 -20 59 -35 3 -53 -58 -19 -62 -29 -16 -41 75 -21 75 -52 0 -65 -21 -4 -38 -10 -38 -14 0 -4 21 -14 48 -21 26 -8 75 -27 110 -44 l62 -31 48 24 c47 24 47 24 17 28 -16 1 -54 10 -83 18 -30 8 -71 16 -92 17 -31 1 -37 4 -28 14 6 7 23 13 39 13 33 0 30 -10 34 155 3 100 -1 119 -22 111 -20 -8 -64 4 -57 15 3 6 15 7 27 4 16 -5 18 -4 8 3 -9 7 -10 11 -2 13 10 4 14 41 9 92 -1 9 -8 17 -17 17 -11 0 -10 3 5 15 31 23 34 18 30 -50 -3 -51 -1 -63 8 -55 7 5 16 7 20 3 4 -4 6 10 6 32 -1 22 1 102 5 179 6 112 5 140 -6 147 -10 6 -11 9 -1 9 6 0 12 9 12 20 0 15 7 20 28 20 33 0 72 25 72 47 0 9 -11 26 -26 39 -25 24 -54 32 -54 14z m37 -72 c-3 -8 -6 -5 -6 6 -1 11 2 17 5 13 3 -3 4 -12 1 -19z m-81 -54 c-3 -9 -6 -22 -6 -30 0 -8 -5 -14 -12 -14 -6 0 -8 3 -5 6 4 4 -3 15 -14 25 l-20 17 23 5 c13 2 27 5 32 6 4 0 5 -6 2 -15z m-126 -328 c0 -7 -40 -14 -44 -7 -3 4 6 8 20 9 13 1 24 0 24 -2z m104 -188 c-4 -13 -6 -48 -5 -80 2 -64 -7 -76 -38 -49 -21 19 -21 20 -3 33 18 13 36 58 24 58 -4 0 -18 9 -32 20 l-25 19 30 -2 c20 -1 29 2 28 11 -2 6 4 12 13 12 11 0 14 -6 8 -22z"/> <path d="M3103 3953 c-26 -5 -30 -18 -8 -27 8 -3 15 0 16 7 1 7 5 1 9 -13 8 -24 8 -23 9 8 1 17 0 31 -1 31 -2 -1 -13 -4 -25 -6z"/> <path d="M3071 3900 c-10 -5 -9 -8 2 -13 7 -3 19 -2 26 3 10 5 9 8 -2 13 -7 3 -19 2 -26 -3z"/> <path d="M3912 3890 c-40 -9 -63 -37 -55 -65 7 -26 20 -34 66 -41 49 -9 48 -31 -3 -52 -22 -9 -40 -19 -40 -22 0 -6 40 -23 104 -44 26 -9 74 -30 105 -46 67 -36 71 -36 105 -9 14 11 30 18 36 14 5 -3 7 0 5 7 -6 15 -119 56 -190 69 -27 5 -68 6 -90 2 -22 -3 -37 -3 -34 1 6 6 30 12 79 20 11 2 16 22 20 85 3 46 3 85 1 87 -7 6 -72 3 -109 -6z m88 -34 c-4 -4 -6 -16 -3 -25 4 -13 3 -14 -5 -1 -6 8 -9 17 -6 21 2 4 -3 9 -11 13 -25 9 -19 -39 6 -50 20 -9 20 -10 3 -24 -16 -14 -17 -13 -11 4 6 14 4 17 -8 12 -24 -9 -45 4 -45 29 0 12 7 28 15 35 8 7 15 10 15 7 0 -4 10 -3 23 2 24 9 43 -7 27 -23z m-105 -16 c3 -5 2 -10 -4 -10 -5 0 -13 5 -16 10 -3 6 -2 10 4 10 5 0 13 -4 16 -10z m111 -87 c-2 -2 -11 0 -20 3 -14 5 -15 9 -5 15 12 7 34 -10 25 -18z m-26 -13 c0 -5 -5 -10 -11 -10 -5 0 -7 5 -4 10 3 6 8 10 11 10 2 0 4 -4 4 -10z m110 -69 c0 -5 -6 -12 -12 -15 -7 -3 1 -3 17 0 23 4 27 3 15 -5 -13 -9 -12 -11 4 -11 11 0 17 -3 13 -6 -3 -3 -22 -1 -42 6 -29 10 -34 14 -24 26 13 16 29 19 29 5z m72 -24 c15 -12 15 -14 -4 -26 -11 -7 -23 -10 -26 -7 -3 3 0 6 7 6 9 0 9 5 1 20 -12 23 -3 25 22 7z"/> <path d="M2588 3874 c-3 -5 -6 -24 -6 -42 -1 -30 2 -32 31 -32 18 1 109 -2 202 -6 l170 -7 1 42 1 41 -161 0 c-88 0 -177 3 -197 6 -20 4 -39 2 -41 -2z m182 -43 c0 -8 -106 -5 -119 3 -5 4 -12 2 -16 -4 -3 -5 -14 -10 -23 -9 -12 0 -13 2 -3 6 11 5 11 7 0 14 -9 5 6 7 37 5 28 -3 57 -1 64 4 13 8 60 -7 60 -19z m87 15 c-3 -8 -1 -17 6 -19 7 -2 8 -8 4 -13 -4 -5 -12 -2 -17 6 -7 11 -11 11 -24 1 -12 -11 -16 -11 -16 -1 0 10 -3 10 -15 0 -13 -11 -14 -10 -9 4 6 15 23 21 53 17 7 -2 10 2 6 8 -3 6 -1 11 5 11 7 0 10 -6 7 -14z m73 -20 c0 -6 5 -3 11 7 5 9 14 17 19 17 9 0 1 -40 -9 -41 -54 -6 -67 -3 -65 16 1 11 3 21 3 22 4 6 41 -12 41 -21z"/> <path d="M3102 3855 c-7 -8 -9 -15 -4 -15 5 0 15 7 22 15 16 19 -1 19 -18 0z"/> <path d="M3797 3829 c7 -7 15 -10 18 -7 3 3 -2 9 -12 12 -14 6 -15 5 -6 -5z"/> <path d="M2854 3752 c4 -3 14 -7 22 -8 9 -1 13 0 10 4 -4 3 -14 7 -22 8 -9 1 -13 0 -10 -4z"/> <path d="M2765 3742 c-16 -2 -50 -12 -74 -23 -62 -29 -111 -90 -58 -73 24 7 38 24 31 36 -3 4 0 8 5 8 6 0 11 -4 11 -8 0 -5 7 -9 15 -9 11 0 12 4 4 13 -7 8 -7 14 1 19 5 3 10 1 10 -5 0 -6 5 -8 11 -4 8 5 8 9 -1 14 -9 5 -9 9 -1 14 6 4 11 2 11 -4 0 -8 6 -8 20 0 15 8 20 8 20 -1 0 -6 -9 -13 -20 -16 -21 -6 -35 -36 -25 -53 3 -6 -4 -10 -17 -10 -18 0 -20 2 -8 10 8 5 11 10 6 10 -5 0 -17 -7 -27 -16 -9 -8 -31 -16 -48 -16 -17 -1 -37 -8 -43 -16 -11 -12 -6 -14 31 -9 24 2 46 9 50 13 9 13 55 18 47 5 -4 -7 1 -11 13 -11 12 0 21 -5 21 -10 0 -6 -12 -9 -27 -8 -16 1 -55 1 -88 0 -48 -2 -56 -5 -42 -13 19 -11 59 -8 106 7 15 4 22 4 18 -3 -10 -16 54 -14 70 3 8 8 26 13 41 13 21 -1 22 -2 7 -6 -11 -3 -25 -11 -31 -18 -6 -8 -34 -15 -68 -16 -31 -1 -59 -6 -62 -11 -3 -4 0 -8 7 -8 7 0 9 -3 6 -6 -4 -4 -13 -1 -22 6 -8 7 -26 10 -40 8 -14 -3 -25 -1 -25 3 0 5 -4 9 -10 9 -15 0 -12 -65 6 -110 9 -22 22 -40 30 -40 7 0 11 -6 8 -13 -5 -14 22 -44 32 -35 2 3 0 17 -6 32 -5 15 -7 45 -4 67 5 32 4 38 -8 34 -20 -8 -45 22 -30 37 13 13 46 2 37 -12 -3 -6 1 -7 10 -4 11 5 14 2 9 -12 -5 -13 0 -10 14 8 14 17 36 29 62 33 73 12 127 48 99 66 -11 7 -10 9 4 9 13 0 17 9 17 38 0 39 -19 67 -50 74 -8 2 -17 5 -20 8 -3 3 -18 4 -35 2z m80 -52 c-3 -4 0 -11 5 -13 6 -3 5 -4 -2 -3 -7 1 -15 11 -16 21 -3 11 0 15 7 10 6 -3 9 -10 6 -15z m-29 -14 c5 -5 8 -22 6 -38 -4 -27 -7 -29 -41 -26 -31 3 -36 7 -39 30 -2 18 4 31 19 42 21 15 32 13 55 -8z m-179 -197 c9 -9 8 -15 -2 -25 -19 -20 -23 -18 -21 11 1 28 6 31 23 14z"/> <path d="M2886 3690 c13 -54 9 -85 -14 -118 -19 -26 -62 -49 -84 -44 -5 1 -8 -3 -8 -8 0 -6 -10 -8 -23 -5 -16 4 -29 -1 -47 -20 -35 -37 -35 -103 -1 -139 18 -20 27 -23 33 -14 6 10 10 10 17 -1 13 -21 80 -8 129 24 52 34 98 120 87 162 -4 16 -8 44 -10 64 -4 46 -15 66 -55 104 l-32 30 8 -35z m61 -77 c2 -6 -3 -10 -14 -8 -10 2 -22 4 -26 4 -5 1 -5 6 -2 12 9 13 37 8 42 -8z m-17 -35 c0 -5 -7 -8 -14 -5 -11 4 -13 1 -9 -10 4 -11 2 -14 -5 -9 -7 4 -12 3 -12 -3 0 -5 5 -13 10 -16 6 -3 10 -2 10 3 0 12 31 25 39 17 3 -3 -1 -10 -9 -15 -13 -8 -12 -11 5 -24 17 -12 18 -15 5 -21 -9 -3 -17 -20 -18 -37 -3 -43 -35 -76 -66 -71 -27 5 -42 43 -23 55 8 5 5 8 -8 8 -14 0 -16 3 -7 12 8 8 15 8 26 -2 9 -7 14 -16 11 -19 -2 -4 2 -8 10 -8 8 0 15 6 15 14 0 7 -3 12 -7 12 -30 -5 -15 21 20 34 9 3 17 12 16 19 0 10 -2 10 -6 1 -2 -7 -16 -13 -29 -13 -14 0 -23 -4 -19 -9 3 -5 1 -12 -4 -15 -5 -4 -13 3 -16 15 -5 14 -13 19 -26 16 -10 -3 -19 -1 -19 4 0 5 7 10 15 10 8 1 21 2 28 3 6 1 15 -3 19 -9 5 -6 11 -6 18 1 8 8 9 14 1 18 -11 7 4 44 24 58 11 8 25 1 25 -14z m-92 -93 c2 -1 -3 -5 -11 -8 -7 -3 -24 1 -38 9 -23 13 -23 13 11 7 19 -3 36 -7 38 -8z m-114 -30 c-4 -8 -10 -15 -15 -15 -5 0 -9 7 -9 15 0 8 7 15 15 15 9 0 12 -6 9 -15z m86 -11 c14 -37 13 -43 -14 -50 -55 -13 -86 24 -50 60 24 24 53 20 64 -10z m-30 -90 c0 -2 -13 2 -29 10 -16 9 -32 12 -36 8 -5 -4 -5 -1 -1 5 6 10 14 10 37 -2 16 -9 29 -18 29 -21z m80 17 c0 -10 -60 -24 -68 -16 -3 3 2 5 12 5 9 0 14 5 11 10 -4 6 5 10 19 10 14 0 26 -4 26 -9z"/> <path d="M2898 3473 c7 -3 16 -2 19 1 4 3 -2 6 -13 5 -11 0 -14 -3 -6 -6z"/> <path d="M2880 3404 c0 -8 5 -12 10 -9 6 3 10 10 10 16 0 5 -4 9 -10 9 -5 0 -10 -7 -10 -16z"/> <path d="M2341 3691 c-6 -4 -12 -59 -15 -124 -5 -109 -4 -117 13 -117 21 0 33 22 25 45 -4 8 -2 15 4 15 5 0 12 -7 16 -15 10 -27 86 -11 86 18 0 7 -3 8 -8 2 -14 -19 -60 -17 -81 4 -12 12 -26 21 -32 21 -5 0 -8 4 -5 9 3 5 32 6 63 3 32 -3 68 -6 80 -6 17 -1 19 -4 11 -19 -5 -10 -7 -25 -4 -33 3 -9 -1 -14 -14 -14 -10 0 -22 -4 -25 -10 -4 -6 6 -7 25 -4 19 4 30 2 30 -5 0 -6 -9 -11 -20 -11 -21 0 -27 -24 -9 -35 6 -4 8 -13 5 -21 -3 -7 1 -32 9 -54 8 -23 10 -38 6 -35 -5 3 -12 -1 -14 -7 -4 -10 -6 -10 -6 0 -1 7 -6 10 -13 6 -8 -5 -9 -2 -5 9 5 12 1 17 -12 17 -11 0 -28 3 -38 7 -17 7 -17 6 -1 -11 10 -9 22 -14 28 -11 5 3 10 -3 10 -15 0 -12 4 -19 9 -15 5 3 12 1 16 -5 4 -6 11 -8 16 -5 5 4 9 1 9 -4 0 -6 -6 -11 -12 -11 -9 0 -8 -4 2 -10 13 -8 12 -10 -2 -10 -10 0 -18 5 -18 10 0 6 -7 10 -15 10 -8 0 -19 9 -25 19 -7 14 -18 19 -38 17 -15 -2 -34 -4 -42 -5 -13 -1 -13 -2 0 -12 11 -7 12 -12 3 -15 -16 -7 -5 -34 13 -34 8 0 23 9 34 20 12 12 25 18 30 15 15 -9 12 -25 -4 -25 -7 0 -19 -7 -26 -15 -7 -8 -21 -15 -32 -15 -15 0 -17 -4 -10 -17 5 -10 7 -33 5 -51 l-5 -33 44 3 c28 2 45 8 45 16 0 7 -7 10 -18 7 -41 -13 -59 -13 -59 -1 0 8 7 19 16 27 14 11 14 13 -1 21 -14 8 -13 12 9 29 14 11 30 18 35 15 5 -4 11 -1 13 5 4 11 10 9 57 -18 2 -2 -2 -9 -9 -18 -7 -8 -10 -22 -6 -30 4 -11 2 -14 -6 -9 -7 4 -8 3 -4 -4 12 -20 36 -13 37 11 5 220 10 362 14 405 5 53 2 59 -25 42 -10 -6 -11 -10 -2 -10 6 0 12 -9 12 -21 0 -18 -4 -20 -27 -13 -16 4 -54 7 -86 5 -40 -1 -57 1 -52 8 3 6 28 11 56 11 27 0 49 4 49 10 0 5 -7 7 -16 3 -10 -4 -22 1 -30 12 -9 12 -19 15 -31 10 -17 -7 -17 -8 2 -15 18 -8 17 -9 -7 -9 -22 -1 -28 4 -28 19 0 15 9 22 30 27 17 3 33 10 36 14 6 11 6 11 -34 0 -24 -7 -32 -7 -32 4 0 9 15 12 56 10 39 -3 61 1 71 11 13 12 12 14 0 14 -9 0 -17 -5 -19 -10 -2 -7 -19 -7 -50 -2 -25 5 -51 6 -57 3z m19 -170 c0 -6 -4 -13 -10 -16 -5 -3 -10 1 -10 9 0 9 5 16 10 16 6 0 10 -4 10 -9z m0 -35 c0 -3 -4 -8 -10 -11 -5 -3 -10 -1 -10 4 0 6 5 11 10 11 6 0 10 -2 10 -4z m147 -78 c-3 -8 -6 -5 -6 6 -1 11 2 17 5 13 3 -3 4 -12 1 -19z m-112 -147 c-13 -14 -28 -22 -32 -17 -4 4 -1 11 6 15 7 5 11 13 8 17 -3 5 6 9 19 9 l24 0 -25 -24z"/> <path d="M3070 3684 c0 -8 5 -12 10 -9 6 3 10 10 10 16 0 5 -4 9 -10 9 -5 0 -10 -7 -10 -16z"/> <path d="M2438 3653 c7 -3 16 -2 19 1 4 3 -2 6 -13 5 -11 0 -14 -3 -6 -6z"/> <path d="M2410 3628 c0 -4 8 -8 18 -8 10 0 23 -5 29 -11 7 -7 12 -5 15 8 4 15 -1 18 -29 19 -18 0 -33 -3 -33 -8z"/> <path d="M3181 3631 c-7 -5 -12 -14 -10 -20 2 -6 10 -2 17 9 14 22 13 23 -7 11z"/> <path d="M3138 3603 c7 -3 16 -2 19 1 4 3 -2 6 -13 5 -11 0 -14 -3 -6 -6z"/> <path d="M2400 3536 c0 -2 11 -6 25 -8 14 -3 25 -1 25 3 0 5 -11 9 -25 9 -14 0 -25 -2 -25 -4z"/> <path d="M3030 3525 c0 -8 9 -15 21 -15 11 0 18 4 15 9 -4 5 0 12 6 14 7 3 1 6 -14 6 -19 1 -28 -4 -28 -14z"/> <path d="M3090 3522 c-13 -14 -12 -15 2 -10 11 5 18 0 23 -15 4 -13 8 -17 11 -10 3 7 0 21 -8 31 -12 18 -15 18 -28 4z"/> <path d="M3536 3489 c-14 -11 -34 -35 -42 -52 -16 -29 -16 -32 5 -49 l22 -17 -28 -7 c-79 -17 -81 -23 -16 -46 34 -12 51 -14 60 -6 7 6 13 9 14 7 8 -35 9 -102 5 -194 -4 -84 -5 -87 -16 -80 -5 3 -7 12 -3 21 3 9 0 14 -7 12 -7 -2 -15 4 -18 12 -2 8 -1 12 3 8 8 -8 35 14 29 24 -2 3 -18 0 -34 -9 -17 -8 -51 -20 -77 -26 -53 -14 -64 -30 -32 -47 18 -10 28 -8 61 10 43 24 51 22 53 -13 1 -12 5 -33 9 -46 5 -15 5 -21 -2 -17 -13 8 -102 -15 -102 -26 0 -4 -7 -5 -15 -2 -9 4 -15 0 -15 -10 0 -9 7 -16 15 -16 24 0 36 -33 18 -53 -22 -24 -14 -28 30 -16 42 11 49 37 18 68 -19 19 -18 19 11 25 86 17 148 -8 148 -59 0 -38 -16 -55 -52 -55 -30 0 -40 -19 -10 -21 130 -9 174 90 64 142 -26 12 -49 23 -51 25 -2 2 -4 38 -5 81 -2 43 -6 86 -10 96 -6 12 -4 17 6 17 26 0 38 -24 38 -75 0 -40 4 -53 21 -63 12 -7 22 -12 24 -10 2 2 5 28 6 58 3 71 -12 100 -51 100 -30 0 -30 0 -30 59 0 33 -3 67 -6 75 -5 12 4 20 32 32 44 18 54 29 54 60 0 21 -69 104 -87 104 -6 0 -22 -9 -37 -21z m58 -45 c27 -40 18 -59 -39 -80 -18 -6 -18 -8 -2 -11 9 -3 15 -9 11 -14 -3 -5 -10 -6 -16 -3 -6 4 -15 0 -20 -7 -7 -10 -11 -11 -14 -2 -3 7 -13 10 -22 7 -12 -4 -11 -2 3 7 11 8 25 14 30 14 6 0 9 18 7 39 -2 25 3 44 14 57 22 25 28 24 48 -7z m56 -48 c0 -2 -7 -6 -15 -10 -8 -3 -15 -1 -15 4 0 6 7 10 15 10 8 0 15 -2 15 -4z m-4 -290 c3 -8 0 -23 -6 -33 -11 -17 -11 -17 -6 1 4 10 1 25 -5 32 -9 11 -9 14 0 14 6 0 14 -6 17 -14z m-89 -102 c-3 -3 -12 -4 -19 -1 -8 3 -5 6 6 6 11 1 17 -2 13 -5z m3 -24 c0 -5 -2 -10 -4 -10 -3 0 -8 5 -11 10 -3 6 -1 10 4 10 6 0 11 -4 11 -10z m-101 -84 c-3 -3 -11 5 -18 17 -13 21 -12 21 5 5 10 -10 16 -20 13 -22z m207 -3 c-3 -7 -1 -13 5 -13 6 0 7 -4 4 -10 -3 -5 -14 -10 -23 -10 -10 0 -13 3 -7 8 13 9 16 42 4 42 -5 0 -9 5 -9 11 0 8 5 7 15 -1 9 -7 14 -19 11 -27z"/> <path d="M3451 3474 c0 -11 3 -14 6 -6 3 7 2 16 -1 19 -3 4 -6 -2 -5 -13z"/> <path d="M2377 3453 c8 -3 11 -14 7 -29 -6 -23 2 -30 30 -25 4 1 14 -4 22 -10 8 -6 14 -8 14 -4 0 4 -10 15 -22 25 -17 13 -25 15 -31 7 -6 -8 -7 -7 -5 3 3 8 15 17 29 20 21 5 22 7 6 13 -10 4 -28 7 -40 6 -12 0 -16 -3 -10 -6z"/> <path d="M1776 3441 c-3 -5 13 -16 35 -25 l41 -17 -6 -57 c-6 -50 -4 -59 14 -75 36 -30 41 -21 38 65 l-3 82 -37 11 c-20 5 -40 13 -44 18 -10 10 -32 9 -38 -2z m104 -95 c0 -3 -4 -8 -10 -11 -5 -3 -10 -1 -10 4 0 6 5 11 10 11 6 0 10 -2 10 -4z"/> <path d="M2320 3408 c2 -49 -9 -287 -15 -330 l-5 -38 47 0 c44 1 47 2 29 15 -24 18 -43 19 -49 3 -4 -10 -6 -9 -6 1 -1 8 7 20 17 27 16 13 16 15 -1 25 -13 7 -15 17 -11 37 4 15 11 30 17 33 5 4 5 9 -1 13 -6 4 -9 13 -6 20 3 8 0 17 -6 21 -8 5 -8 10 0 20 6 7 10 17 9 21 -4 23 3 35 25 45 23 11 28 31 11 46 -4 4 -5 2 -1 -4 5 -9 1 -13 -11 -13 -15 0 -16 -2 -3 -10 10 -7 11 -10 2 -10 -18 0 -26 28 -13 44 6 7 8 16 4 19 -3 4 0 13 6 21 7 9 8 17 2 20 -5 3 -12 0 -14 -6 -4 -10 -6 -10 -6 0 -2 28 -22 9 -21 -20z m30 -82 c0 -3 -4 -8 -10 -11 -5 -3 -10 -1 -10 4 0 6 5 11 10 11 6 0 10 -2 10 -4z"/> <path d="M2445 3420 c3 -5 8 -10 11 -10 2 0 4 5 4 10 0 6 -5 10 -11 10 -5 0 -7 -4 -4 -10z"/> <path d="M3203 3408 c-4 -7 -8 -17 -8 -22 0 -5 -9 -12 -20 -16 -19 -7 -19 -7 2 -14 26 -8 40 -43 24 -59 -8 -8 -15 -6 -25 9 -13 17 -13 20 2 26 16 6 16 7 0 7 -9 1 -22 9 -27 19 -14 23 -14 3 0 -36 6 -17 19 -34 30 -37 21 -7 26 -25 7 -25 -7 0 -5 -5 5 -11 25 -15 21 -39 -7 -39 -13 0 -26 5 -28 11 -2 7 -9 5 -17 -5 -12 -14 -10 -16 18 -16 29 0 32 -3 29 -27 -2 -16 4 -34 12 -41 13 -12 12 -13 -5 -9 -11 3 -35 11 -52 18 -25 10 -35 11 -45 1 -6 -6 -8 -15 -4 -19 4 -4 11 -1 16 7 7 11 10 12 10 2 0 -7 5 -10 11 -7 16 11 71 -16 65 -31 -3 -8 -1 -14 5 -14 14 0 -11 -24 -35 -33 -13 -5 -17 -3 -13 7 6 16 -13 27 -46 25 -20 -1 -20 -1 2 -8 14 -4 27 -13 29 -20 4 -11 -2 -12 -24 -7 -16 4 -33 8 -39 9 -5 1 -13 7 -17 12 -4 6 -8 2 -8 -7 0 -10 -4 -18 -9 -18 -5 0 -7 9 -4 20 3 11 10 20 15 20 7 0 6 5 -1 13 -6 8 -9 23 -6 35 2 11 -3 26 -11 33 -12 10 -14 0 -14 -63 l0 -75 103 -2 102 -1 0 200 c0 110 -3 200 -7 200 -4 0 -10 -6 -15 -12z"/> <path d="M2406 3371 c-3 -5 1 -12 10 -15 20 -8 29 -1 19 13 -8 13 -22 14 -29 2z"/> <path d="M3070 3362 c0 -15 6 -22 20 -22 23 0 27 -25 5 -34 -9 -3 -15 0 -15 10 0 8 -4 13 -9 10 -5 -3 -11 3 -14 14 -9 34 -27 22 -27 -17 0 -21 -3 -49 -7 -62 -5 -20 -3 -23 11 -18 9 4 27 1 41 -5 19 -8 28 -8 42 3 11 9 14 10 9 2 -12 -21 8 -15 27 7 21 25 22 37 2 20 -8 -6 -20 -10 -27 -8 -7 3 -18 -2 -23 -9 -9 -12 -16 -12 -38 -2 -20 9 -24 15 -15 21 10 6 10 8 1 8 -7 0 -10 7 -7 15 8 19 24 20 24 1 0 -20 38 -8 51 17 8 14 8 22 -1 27 -7 5 -9 13 -5 21 6 9 4 11 -7 6 -9 -3 -21 0 -27 6 -8 8 -11 5 -11 -11z"/> <path d="M2455 3360 c3 -5 10 -10 16 -10 5 0 9 5 9 10 0 6 -7 10 -16 10 -8 0 -12 -4 -9 -10z"/> <path d="M3971 3283 c8 -9 9 -14 3 -10 -7 4 -14 -2 -17 -13 -3 -13 -20 -24 -51 -32 -58 -15 -59 -28 -1 -28 45 0 95 17 95 32 0 13 23 9 63 -12 20 -11 37 -15 37 -9 0 5 5 7 10 4 14 -9 1 -27 -15 -21 -8 3 -16 -5 -19 -20 -9 -36 -60 -53 -158 -54 -58 -1 -62 -15 -8 -30 68 -18 63 -43 -12 -55 -44 -8 -42 -20 5 -30 52 -11 57 -21 57 -100 0 -54 4 -74 14 -78 11 -5 13 0 6 24 -5 17 -5 29 1 29 5 0 9 7 9 16 0 8 -4 12 -10 9 -15 -9 -12 5 5 22 14 13 15 8 12 -56 -2 -38 0 -68 5 -65 10 6 11 -20 1 -29 -8 -9 -11 -57 -3 -57 4 0 6 -15 5 -32 -1 -30 -4 -33 -36 -33 -44 -1 -79 -13 -79 -28 0 -7 -4 -6 -10 3 -7 11 -10 11 -10 2 0 -7 -7 -12 -16 -10 -10 2 -19 -3 -21 -9 -3 -7 2 -13 10 -13 21 0 27 -46 9 -64 -22 -22 -13 -26 28 -12 40 13 50 39 25 66 -16 17 -15 19 6 30 38 21 112 16 147 -9 18 -12 32 -29 32 -37 0 -8 5 -14 10 -14 6 0 -1 -12 -14 -27 -21 -22 -33 -27 -63 -24 -33 3 -36 1 -24 -13 8 -10 29 -16 53 -16 32 0 47 7 74 34 19 19 34 41 34 49 0 28 -37 61 -86 77 l-49 17 -3 225 -2 225 59 16 c54 15 59 19 63 49 7 42 -24 73 -81 83 -25 4 -45 14 -51 26 -6 10 -20 19 -32 19 -18 0 -19 -2 -7 -17z m33 -22 c3 -5 -1 -11 -9 -14 -9 -4 -12 -1 -8 9 6 16 10 17 17 5z m116 -91 c-11 -20 -40 -28 -40 -10 0 5 7 6 17 3 10 -4 14 -2 10 4 -6 9 1 17 21 22 1 1 -2 -8 -8 -19z m-126 -92 c9 -35 8 -38 -14 -38 -10 0 -24 -8 -29 -17 -6 -10 -11 -13 -11 -7 0 6 7 17 16 25 9 7 14 22 11 36 -6 30 19 31 27 1z m6 -70 c0 -19 -2 -20 -10 -8 -6 9 -10 10 -10 3 0 -6 5 -15 10 -18 13 -8 13 -25 0 -25 -13 0 -32 48 -24 61 11 18 34 9 34 -13z m125 -428 c-3 -5 -1 -10 5 -10 6 0 8 -5 4 -11 -4 -8 -9 -7 -15 2 -12 19 -11 29 2 29 5 0 7 -4 4 -10z m-225 -20 c0 -5 -5 -10 -11 -10 -5 0 -7 5 -4 10 3 6 8 10 11 10 2 0 4 -4 4 -10z m210 -29 c0 -5 -7 -12 -16 -15 -14 -5 -15 -4 -4 9 14 17 20 19 20 6z"/> <path d="M3500 3279 c-8 -5 -27 -9 -42 -9 -18 0 -28 -5 -28 -15 0 -10 10 -15 28 -15 15 0 33 -4 40 -9 18 -11 10 -47 -8 -43 -21 5 -60 -7 -60 -18 0 -6 6 -10 13 -10 8 0 29 -7 47 -16 27 -14 34 -14 41 -3 5 8 9 19 9 24 0 6 -5 3 -10 -5 -6 -9 -10 -11 -10 -3 0 7 -7 10 -17 7 -10 -3 -8 1 5 8 12 8 19 18 15 22 -4 5 3 5 15 1 21 -6 20 -3 -9 24 -30 30 -31 32 -14 45 21 15 7 29 -15 15z"/> <path d="M2564 3243 c3 -33 7 -38 29 -41 19 -2 27 1 27 12 0 10 -9 16 -22 16 -20 1 -19 3 7 14 21 9 32 10 37 2 7 -10 12 -2 9 16 0 4 6 5 14 2 8 -4 15 -11 15 -16 0 -6 6 -5 15 2 9 8 28 10 49 6 19 -4 36 -3 38 1 3 4 3 3 2 -4 -2 -6 7 -13 18 -15 12 -2 23 -9 26 -16 3 -11 0 -12 -18 -2 -12 7 -20 8 -16 2 3 -5 -6 -9 -19 -9 -28 0 -35 17 -7 18 14 0 14 2 -3 9 -28 12 -45 12 -45 -1 0 -5 5 -7 10 -4 6 3 10 1 10 -4 0 -6 -7 -11 -15 -11 -8 0 -15 6 -15 13 0 8 -3 7 -10 -3 -7 -12 -12 -12 -22 -2 -16 16 -26 15 -37 -5 -8 -17 0 -18 120 -18 71 0 129 -2 129 -5 0 -9 80 1 86 11 2 5 0 18 -6 29 -8 15 -8 20 1 20 7 0 10 3 6 6 -3 3 -98 8 -210 10 l-205 4 2 -37z m380 8 c-2 -2 1 -10 7 -17 7 -8 6 -14 -2 -20 -6 -4 -16 0 -21 10 -5 9 -19 15 -31 15 -17 -1 -18 -2 -4 -6 25 -7 21 -18 -8 -18 -15 0 -25 6 -25 15 0 13 -1 13 -10 0 -5 -8 -10 -12 -10 -8 0 3 -2 12 -5 20 -4 10 9 13 54 13 33 0 57 -2 55 -4z"/> <path d="M3078 3263 c7 -3 16 -2 19 1 4 3 -2 6 -13 5 -11 0 -14 -3 -6 -6z"/> <path d="M3170 3230 c0 -5 5 -10 11 -10 5 0 7 5 4 10 -3 6 -8 10 -11 10 -2 0 -4 -4 -4 -10z"/> <path d="M3020 3221 c0 -5 11 -8 25 -8 14 0 25 3 25 8 0 5 -11 9 -25 9 -14 0 -25 -4 -25 -9z"/> <path d="M3760 3220 c-11 -7 -12 -12 -3 -21 15 -15 48 -7 48 11 0 18 -24 24 -45 10z"/> <path d="M3085 3210 c-3 -5 -1 -10 6 -10 7 0 3 -10 -9 -23 -24 -25 -28 -37 -12 -37 6 0 10 7 10 15 0 13 11 19 31 17 3 -1 4 10 1 23 -5 26 -16 32 -27 15z"/> <path d="M2420 3200 c-11 -7 -5 -9 23 -8 24 1 33 4 25 9 -17 11 -30 11 -48 -1z"/> <path d="M3033 3203 c-7 -3 -13 -9 -13 -15 0 -6 7 -8 15 -4 8 3 15 0 15 -6 0 -6 3 -9 6 -5 10 9 -10 34 -23 30z"/> <path d="M3144 3182 c3 -6 0 -13 -6 -16 -7 -3 -3 -4 10 -3 26 2 31 20 6 25 -9 2 -14 -1 -10 -6z"/> <path d="M2445 3170 c-3 -5 -2 -10 4 -10 5 0 13 5 16 10 3 6 2 10 -4 10 -5 0 -13 -4 -16 -10z"/> <path d="M2415 3160 c-3 -5 -1 -10 4 -10 6 0 11 5 11 10 0 6 -2 10 -4 10 -3 0 -8 -4 -11 -10z"/> <path d="M2576 3151 c-4 -6 0 -11 8 -11 9 0 16 -4 16 -9 0 -5 14 -12 30 -16 17 -4 30 -10 30 -13 0 -4 10 -13 21 -21 18 -11 23 -11 31 1 8 10 9 9 4 -4 -4 -13 3 -22 23 -32 26 -14 32 -13 114 35 48 27 91 49 97 49 5 0 10 5 10 10 0 14 -237 13 -245 0 -4 -6 -11 -7 -17 -4 -6 4 -23 8 -37 9 -14 1 -38 5 -52 9 -17 5 -29 3 -33 -3z m184 -21 c0 -5 -2 -10 -4 -10 -3 0 -8 5 -11 10 -3 6 -1 10 4 10 6 0 11 -4 11 -10z m140 1 c0 -5 -15 -15 -34 -21 -19 -6 -37 -16 -39 -23 -2 -7 -8 -9 -12 -4 -5 4 0 14 11 22 10 8 15 15 9 16 -5 1 4 5 20 9 43 11 45 11 45 1z m-161 -17 c7 -2 19 0 26 6 20 17 44 1 41 -27 -4 -34 -31 -49 -45 -26 -6 11 -11 13 -11 5 0 -7 -5 -10 -10 -7 -8 5 -7 12 2 23 11 13 10 15 -4 9 -11 -4 -18 -2 -18 6 0 8 -3 7 -9 -2 -8 -12 -12 -12 -25 2 -9 8 -16 18 -16 21 0 6 35 0 69 -10z"/> <path d="M2777 3103 c-10 -10 -8 -23 4 -23 5 0 8 4 5 9 -4 5 0 12 6 14 7 3 8 6 2 6 -6 1 -14 -2 -17 -6z"/> <path d="M3761 3131 c-12 -8 -12 -12 3 -26 13 -14 19 -15 31 -5 12 10 13 16 4 26 -13 16 -19 17 -38 5z"/> <path d="M2474 3119 c-3 -5 -1 -9 4 -9 5 0 9 -7 9 -15 0 -8 -5 -15 -10 -15 -5 0 -7 -7 -3 -15 3 -8 1 -15 -4 -15 -6 0 -10 4 -10 9 0 14 -48 10 -54 -5 -3 -8 0 -14 7 -15 7 0 31 -2 54 -3 l41 -3 4 43 c2 34 0 44 -14 48 -10 2 -21 0 -24 -5z"/> <path d="M3110 3109 l-35 -6 38 -2 c21 0 37 -6 37 -13 0 -6 3 -9 6 -5 3 3 2 12 -3 19 -5 9 -19 11 -43 7z"/> <path d="M2366 3091 c-4 -5 -1 -13 5 -17 6 -3 15 -1 19 6 5 9 20 11 44 7 20 -3 36 -2 36 2 0 11 -97 13 -104 2z"/> <path d="M3834 2889 c4 -35 9 -65 11 -67 2 -2 28 -7 57 -11 50 -6 53 -8 51 -35 -2 -22 1 -25 12 -16 14 12 17 52 3 44 -4 -3 -8 0 -8 6 0 6 -16 18 -35 26 -28 11 -35 20 -35 43 0 26 -15 47 -49 66 -11 6 -12 -3 -7 -56z m34 -10 c-3 -8 -7 -3 -11 10 -4 17 -3 21 5 13 5 -5 8 -16 6 -23z m7 -48 c-6 -5 -25 10 -25 20 0 5 6 4 14 -3 8 -7 12 -15 11 -17z"/> <path d="M1666 2813 c-4 -5 -11 -8 -14 -8 -23 -2 -49 -18 -60 -36 -21 -33 6 -64 67 -76 46 -9 52 -8 66 11 15 21 15 21 10 -4 -4 -17 -3 -21 3 -11 7 9 12 10 16 2 4 -6 2 -11 -4 -11 -7 0 -10 -6 -7 -14 3 -8 0 -17 -8 -20 -9 -3 -12 0 -8 10 8 22 -9 17 -35 -10 -12 -14 -36 -27 -52 -31 -17 -4 -30 -10 -30 -15 0 -6 60 -27 100 -34 28 -6 160 -66 191 -87 26 -18 27 -18 68 9 22 14 41 29 41 33 0 4 -12 9 -27 12 -30 6 -63 -11 -63 -32 0 -14 -15 -6 -15 7 0 4 -4 13 -9 21 -7 11 -5 13 6 9 8 -4 21 -2 29 3 11 7 9 9 -8 9 -12 0 -23 4 -25 9 -5 15 -129 32 -144 20 -8 -7 -14 -6 -19 1 -4 7 -16 10 -26 7 -12 -3 -19 0 -19 10 0 8 5 11 10 8 6 -3 10 -1 10 4 0 6 11 11 24 11 35 0 46 20 42 78 -2 29 0 68 4 87 l8 35 -57 0 c-32 0 -61 -3 -65 -7z m51 -61 c-4 -36 -5 -37 -46 -38 -29 -1 -39 2 -31 10 5 5 10 18 10 28 0 18 49 50 63 41 4 -2 6 -21 4 -41z m34 5 c-16 -16 -26 0 -10 19 9 11 15 12 17 4 2 -6 -1 -17 -7 -23z m-121 -17 c0 -5 -4 -10 -10 -10 -5 0 -10 5 -10 10 0 6 5 10 10 10 6 0 10 -4 10 -10z m205 -180 c-3 -5 -13 -10 -21 -10 -8 0 -14 5 -14 10 0 6 9 10 21 10 11 0 17 -4 14 -10z m42 -6 c-3 -3 -12 -4 -19 -1 -8 3 -5 6 6 6 11 1 17 -2 13 -5z m-20 -20 c-3 -3 -12 -4 -19 -1 -8 3 -5 6 6 6 11 1 17 -2 13 -5z m87 -39 c-4 -8 -8 -15 -10 -15 -2 0 -4 7 -4 15 0 8 4 15 10 15 5 0 7 -7 4 -15z"/> <path d="M3881 2741 c-10 -7 -2 -14 33 -29 29 -13 46 -27 46 -38 0 -16 1 -16 20 1 20 18 18 35 -3 35 -7 0 -6 -4 3 -10 10 -7 11 -10 2 -10 -7 0 -16 8 -19 18 -15 39 -50 53 -82 33z"/> <path d="M2635 2730 c-3 -5 -4 -14 0 -19 3 -6 -3 -14 -12 -20 -21 -11 -13 -24 10 -15 10 3 15 17 15 35 -1 31 -3 35 -13 19z"/> <path d="M3512 2653 c4 -21 36 -29 51 -14 9 9 8 14 -3 21 -25 16 -52 12 -48 -7z"/> <path d="M3698 5483 c7 -3 16 -2 19 1 4 3 -2 6 -13 5 -11 0 -14 -3 -6 -6z"/> <path d="M4220 5466 c0 -2 7 -6 15 -10 8 -3 15 -1 15 4 0 6 -7 10 -15 10 -8 0 -15 -2 -15 -4z"/> <path d="M71 5414 c0 -11 3 -14 6 -6 3 7 2 16 -1 19 -3 4 -6 -2 -5 -13z"/> <path d="M1155 5369 c6 -32 13 -34 13 -4 0 14 -4 25 -9 25 -4 0 -6 -10 -4 -21z"/> <path d="M4451 5244 c0 -11 3 -14 6 -6 3 7 2 16 -1 19 -3 4 -6 -2 -5 -13z"/> <path d="M1140 5189 c0 -5 5 -7 10 -4 6 3 10 8 10 11 0 2 -4 4 -10 4 -5 0 -10 -5 -10 -11z"/> <path d="M4451 5144 c0 -11 3 -14 6 -6 3 7 2 16 -1 19 -3 4 -6 -2 -5 -13z"/> <path d="M1136 5135 c4 -8 8 -15 10 -15 2 0 4 7 4 15 0 8 -4 15 -10 15 -5 0 -7 -7 -4 -15z"/> <path d="M4445 4871 c-3 -5 -1 -12 5 -16 5 -3 10 1 10 9 0 18 -6 21 -15 7z"/> <path d="M1122 4770 c0 -14 2 -19 5 -12 2 6 2 18 0 25 -3 6 -5 1 -5 -13z"/> <path d="M1122 4700 c0 -14 2 -19 5 -12 2 6 2 18 0 25 -3 6 -5 1 -5 -13z"/> <path d="M1100 4622 c0 -5 7 -9 15 -9 8 0 12 4 9 9 -3 4 -9 8 -15 8 -5 0 -9 -4 -9 -8z"/> <path d="M1105 4580 c3 -5 8 -10 11 -10 2 0 4 5 4 10 0 6 -5 10 -11 10 -5 0 -7 -4 -4 -10z"/> <path d="M1100 4540 c0 -5 5 -10 10 -10 6 0 10 5 10 10 0 6 -4 10 -10 10 -5 0 -10 -4 -10 -10z"/> <path d="M4430 4278 c0 -9 5 -20 11 -23 17 -11 18 -2 3 19 -12 17 -14 17 -14 4z"/> <path d="M1092 4260 c0 -14 2 -19 5 -12 2 6 2 18 0 25 -3 6 -5 1 -5 -13z"/> <path d="M1093 4165 c0 -33 2 -45 4 -27 2 18 2 45 0 60 -2 15 -4 0 -4 -33z"/> <path d="M4430 4066 c0 -9 5 -16 10 -16 6 0 10 4 10 9 0 6 -4 13 -10 16 -5 3 -10 -1 -10 -9z"/> <path d="M4430 3930 c0 -11 4 -20 9 -20 5 0 7 9 4 20 -3 11 -7 20 -9 20 -2 0 -4 -9 -4 -20z"/> <path d="M1037 3203 c-4 -3 -7 -11 -7 -17 0 -6 5 -5 12 2 6 6 9 14 7 17 -3 3 -9 2 -12 -2z"/> <path d="M1043 3135 c0 -22 2 -30 4 -17 2 12 2 30 0 40 -3 9 -5 -1 -4 -23z"/> <path d="M1015 2710 c4 -6 11 -8 16 -5 14 9 11 15 -7 15 -8 0 -12 -5 -9 -10z"/> <path d="M1022 2670 c0 -14 2 -19 5 -12 2 6 2 18 0 25 -3 6 -5 1 -5 -13z"/> <path d="M1010 2410 c0 -11 4 -20 9 -20 5 0 7 9 4 20 -3 11 -7 20 -9 20 -2 0 -4 -9 -4 -20z"/> <path d="M1011 2204 c0 -11 3 -14 6 -6 3 7 2 16 -1 19 -3 4 -6 -2 -5 -13z"/> <path d="M1103 2103 c9 -2 23 -2 30 0 6 3 -1 5 -18 5 -16 0 -22 -2 -12 -5z"/> <path d="M1280 2100 c0 -6 7 -10 15 -10 8 0 15 2 15 4 0 2 -7 6 -15 10 -8 3 -15 1 -15 -4z"/> <path d="M1458 2093 c6 -2 18 -2 25 0 6 3 1 5 -13 5 -14 0 -19 -2 -12 -5z"/> <path d="M3078 2063 c6 -2 18 -2 25 0 6 3 1 5 -13 5 -14 0 -19 -2 -12 -5z"/> <path d="M3120 2059 c0 -5 5 -7 10 -4 6 3 10 8 10 11 0 2 -4 4 -10 4 -5 0 -10 -5 -10 -11z"/> </g> </svg>