<?xml version="1.0" standalone="no"?>
<!DOCTYPE svg PUBLIC "-//W3C//DTD SVG 20010904//EN"
 "http://www.w3.org/TR/2001/REC-SVG-20010904/DTD/svg10.dtd">
<svg version="1.0" xmlns="http://www.w3.org/2000/svg"
 width="600.000000pt" height="304.000000pt" viewBox="0 0 600.000000 304.000000"
 preserveAspectRatio="xMidYMid meet">
<g transform="translate(0.000000,304.000000) scale(0.100000,-0.100000)"
fill="#000000" stroke="none">
<path d="M4280 2972 c-60 -61 -69 -201 -25 -392 14 -63 34 -161 44 -218 l18
-103 -77 -172 c-96 -214 -428 -889 -500 -1017 -68 -122 -118 -195 -164 -243
-56 -56 -70 -51 -100 41 -34 104 -49 206 -44 316 4 86 8 102 80 281 41 105
143 348 226 541 192 449 225 552 195 625 -19 47 -56 72 -108 72 -221 0 -390
-446 -435 -1148 -15 -235 -22 -272 -72 -416 l-44 -126 -42 116 c-36 99 -42
127 -42 192 0 79 -13 108 -44 96 -8 -3 -38 -50 -66 -104 -58 -108 -150 -253
-161 -253 -4 0 0 19 8 43 19 53 53 220 53 258 0 20 -8 34 -26 46 -25 16 -27
16 -41 -3 -23 -31 -162 -278 -179 -319 -8 -20 -17 -35 -19 -33 -2 2 14 76 35
164 21 88 45 196 54 239 8 44 22 108 31 143 10 39 14 78 10 101 -9 52 -40 101
-65 101 -11 0 -20 4 -20 9 0 6 14 67 30 136 17 69 30 150 30 179 0 65 -32 132
-80 164 -30 21 -44 23 -95 19 -128 -10 -263 -88 -427 -246 -86 -82 -203 -233
-220 -282 -3 -10 -13 -4 -32 18 -15 18 -53 45 -84 60 -57 28 -58 28 -252 28
-181 0 -203 -2 -300 -28 -384 -102 -878 -388 -1203 -699 -70 -67 -88 -89 -85
-108 1 -13 8 -25 15 -27 6 -2 54 35 105 83 133 124 223 195 383 300 305 200
632 351 867 398 88 18 342 22 399 6 45 -13 96 -47 122 -82 l21 -28 -47 -97
c-104 -220 -170 -492 -207 -852 -30 -298 6 -485 97 -507 65 -17 107 39 168
227 93 284 134 511 142 784 6 210 -5 290 -51 391 l-25 55 30 52 c80 135 151
221 259 311 141 118 252 176 341 176 54 0 89 -44 89 -110 0 -60 -56 -314 -78
-357 -9 -18 -52 -81 -95 -140 -168 -230 -405 -795 -365 -867 11 -20 47 -21 75
-1 58 41 195 281 292 511 51 122 151 411 151 437 0 29 30 28 41 -1 12 -29 4
-76 -73 -407 -21 -93 -49 -229 -62 -303 -24 -133 -24 -134 -4 -154 10 -10 27
-18 36 -16 11 2 53 74 115 196 54 107 100 192 102 190 2 -2 -10 -56 -27 -120
-30 -112 -30 -118 -14 -143 23 -35 41 -40 72 -20 27 17 132 172 179 265 l29
55 7 -40 c4 -22 28 -91 53 -153 33 -79 46 -126 46 -160 0 -49 -44 -207 -118
-429 -79 -233 -104 -386 -69 -420 24 -24 41 -11 89 67 72 120 148 418 163 644
4 45 20 133 38 196 l31 114 12 -80 c15 -108 51 -213 85 -246 87 -88 197 24
406 412 69 128 380 780 421 883 l40 98 5 -43 c4 -24 9 -86 12 -138 3 -52 8
-113 11 -135 4 -39 1 -44 -98 -160 -160 -188 -278 -352 -278 -387 0 -41 25
-91 58 -115 68 -50 179 -58 246 -19 106 62 146 186 146 456 l0 158 35 43 c20
23 40 50 46 60 5 11 14 19 19 19 5 0 1 -15 -10 -32 -30 -51 -50 -145 -50 -233
0 -70 3 -85 25 -118 51 -74 105 -48 248 117 59 69 60 70 53 34 -8 -44 6 -82
38 -103 21 -14 31 -15 61 -5 43 14 186 153 230 222 17 27 32 48 35 48 15 0 31
-49 41 -129 l12 -91 -57 -75 c-124 -164 -219 -374 -247 -541 -10 -60 -9 -79 5
-125 25 -84 73 -129 138 -129 49 0 77 12 112 46 84 85 116 238 122 584 l3 225
65 55 c134 115 307 192 433 194 136 2 136 -52 -1 -161 -86 -68 -223 -143 -262
-143 -35 0 -74 -18 -74 -34 0 -25 65 -31 132 -12 109 30 248 114 319 193 46
51 68 125 48 161 -21 38 -72 63 -137 69 -126 10 -369 -93 -503 -214 l-36 -33
-7 62 c-3 34 -15 81 -27 105 -23 47 -73 95 -92 87 -6 -3 -37 -41 -67 -85 -48
-71 -191 -219 -211 -219 -15 0 -19 34 -8 74 6 22 29 90 51 149 37 98 39 110
25 124 -8 9 -22 13 -31 10 -16 -6 -17 -8 -92 -137 -56 -96 -236 -293 -260
-283 -22 8 -18 143 6 233 25 90 141 328 207 424 l48 69 117 48 c64 26 201 75
305 109 203 66 234 78 241 97 12 39 -87 21 -338 -59 -85 -28 -178 -61 -207
-74 -29 -12 -53 -21 -53 -19 0 3 25 40 55 82 57 80 62 98 33 116 -23 15 -37 1
-140 -137 -79 -106 -95 -123 -161 -162 -77 -45 -148 -114 -182 -178 -20 -37
-20 -38 -1 -52 11 -8 23 -14 28 -14 4 0 25 24 47 53 40 53 121 137 121 124 0
-12 -121 -178 -196 -268 -41 -48 -70 -91 -65 -94 11 -6 101 76 101 92 0 7 6
16 13 20 6 4 30 33 52 63 22 30 50 69 63 85 43 59 54 85 41 101 -17 21 -28 18
-78 -24 -48 -40 -92 -68 -54 -34 12 11 19 23 16 26 -4 4 3 9 15 13 12 3 19 9
17 14 -3 4 14 18 37 30 24 12 49 26 57 32 7 6 20 12 28 13 19 3 53 34 53 49 0
7 9 20 20 30 11 10 20 24 20 31 0 7 10 20 22 28 12 9 19 16 14 16 -5 0 2 9 15
20 13 12 36 40 52 63 17 26 27 34 25 22 -2 -11 -15 -33 -31 -50 -15 -17 -25
-37 -21 -45 3 -8 2 -11 -2 -7 -11 10 -34 -50 -27 -69 3 -8 12 -13 19 -10 7 3
16 1 19 -4 5 -9 -33 -26 -48 -22 -5 1 -6 -1 -4 -5 3 -5 -6 -13 -19 -20 -13 -6
-22 -7 -18 -2 3 5 0 9 -5 9 -6 0 -11 -4 -11 -10 0 -5 -8 -18 -17 -28 -20 -19
-76 -102 -79 -114 -1 -5 -2 -12 -3 -17 0 -4 -11 -21 -23 -37 -12 -15 -23 -34
-25 -42 -1 -8 -5 -18 -10 -21 -14 -10 -54 -91 -80 -160 -19 -52 -23 -58 -19
-29 3 28 1 40 -12 47 -13 7 -27 -2 -67 -46 -27 -31 -50 -60 -50 -64 0 -4 -3
-10 -6 -13 -4 -4 -5 -24 -3 -46 3 -41 -1 -46 -24 -31 -18 11 -22 42 -8 66 6
11 11 29 12 40 1 11 2 30 3 42 0 13 7 22 14 20 15 -3 13 70 -9 269 l-15 141
55 155 c30 85 62 185 70 222 18 78 21 162 5 171 -15 10 -17 6 -29 -70 -6 -39
-33 -135 -60 -215 -26 -80 -47 -157 -45 -173 2 -15 -1 -25 -6 -21 -5 3 -9 -7
-9 -23 0 -15 -5 -35 -10 -43 -7 -12 -9 -11 -8 5 0 11 -3 38 -7 60 -7 37 -7 39
9 26 22 -19 28 -11 16 25 -23 73 -63 317 -63 394 -2 109 17 150 67 150 26 0
40 -9 69 -41 44 -48 64 -44 42 9 -20 48 -43 72 -82 88 -50 21 -81 17 -113 -14z
m50 -9 c-1 -5 -14 -23 -30 -42 -27 -32 -29 -33 -25 -10 5 28 56 76 55 52z
m-57 -111 c-3 -12 -9 -19 -14 -16 -5 3 -3 14 3 24 15 24 19 21 11 -8z m-6 -69
c1 -19 -1 -22 -8 -12 -11 17 -12 39 -1 39 4 0 8 -12 9 -27z m6 -98 c-3 -9 -8
-14 -10 -11 -3 3 -2 9 2 15 9 16 15 13 8 -4z m-458 -14 c-6 -5 -23 -12 -40
-16 l-30 -6 30 15 c35 17 53 20 40 7z m50 -1 c-3 -5 -2 -10 4 -10 12 0 41 -28
41 -41 0 -5 -12 2 -27 16 -15 14 -35 25 -43 26 -10 0 -9 3 5 9 27 11 27 11 20
0z m-115 -34 c0 -2 -7 -7 -16 -10 -8 -3 -12 -2 -9 4 6 10 25 14 25 6z m110
-16 c11 -11 20 -26 20 -33 0 -45 -73 -243 -220 -592 -92 -220 -178 -428 -190
-463 -13 -34 -24 -61 -26 -60 -5 6 47 426 67 543 40 226 129 468 202 552 29
33 90 72 115 73 6 0 21 -9 32 -20z m-169 -40 c-14 -14 -34 -36 -43 -50 -13
-19 -16 -20 -11 -5 4 11 17 31 29 44 13 14 21 28 18 32 -2 4 4 7 15 6 17 -1
16 -4 -8 -27z m224 -9 c3 -5 2 -12 -3 -15 -5 -3 -9 1 -9 9 0 17 3 19 12 6z
m-12 -44 c3 -8 2 -20 -3 -26 -5 -9 -7 -4 -7 13 0 29 2 32 10 13z m404 -9 c-3
-8 -6 -5 -6 6 -1 11 2 17 5 13 3 -3 4 -12 1 -19z m-691 -54 c-9 -8 -14 -20
-11 -25 4 -5 1 -9 -4 -9 -14 0 -14 6 -1 31 6 10 15 19 21 19 6 0 3 -7 -5 -16z
m268 -28 c-3 -14 -10 -26 -14 -26 -5 0 -3 13 3 30 13 35 21 33 11 -4z m1296
-6 c-8 -5 -19 -10 -25 -10 -5 0 -3 5 5 10 8 5 20 10 25 10 6 0 3 -5 -5 -10z
m-1597 -37 c-7 -3 -10 -10 -8 -16 5 -13 -11 -45 -18 -37 -2 3 0 20 5 38 6 21
13 30 20 26 9 -6 9 -9 1 -11z m282 -3 c3 -5 1 -10 -4 -10 -6 0 -11 5 -11 10 0
6 2 10 4 10 3 0 8 -4 11 -10z m1189 2 c3 -5 -1 -9 -9 -9 -8 0 -12 4 -9 9 3 4
7 8 9 8 2 0 6 -4 9 -8z m-34 -12 c0 -5 -5 -10 -11 -10 -5 0 -7 5 -4 10 3 6 8
10 11 10 2 0 4 -4 4 -10z m-60 -26 c0 -8 -19 -13 -24 -6 -3 5 1 9 9 9 8 0 15
-2 15 -3z m-1110 -14 c0 -5 -5 -10 -11 -10 -5 0 -7 5 -4 10 3 6 8 10 11 10 2
0 4 -4 4 -10z m-299 -37 c-12 -20 -14 -14 -5 12 4 9 9 14 11 11 3 -2 0 -13 -6
-23z m261 -30 c-5 -10 -8 -26 -7 -36 2 -9 0 -15 -5 -12 -9 6 -8 17 4 53 4 13
10 21 13 19 2 -3 0 -14 -5 -24z m-1177 -2 c-3 -6 -11 -11 -16 -11 -5 0 -4 6 3
14 14 16 24 13 13 -3z m55 5 c-4 -4 -16 -4 -26 2 -16 9 -14 10 8 9 15 -1 23
-6 18 -11z m89 -90 l-2 -21 -4 21 c-2 12 -17 34 -34 49 -16 16 -29 33 -29 39
0 5 16 -7 35 -28 19 -21 34 -48 34 -60z m-204 64 c-11 -4 -24 -5 -28 -3 -5 3
-14 -3 -22 -13 -7 -11 -17 -16 -21 -11 -4 4 -16 0 -26 -10 -10 -9 -18 -13 -18
-8 0 4 -20 -9 -44 -29 -31 -25 -47 -33 -52 -25 -4 7 -3 9 4 5 6 -3 14 -1 19 7
8 13 64 52 73 50 3 -1 12 5 21 13 9 8 19 11 23 7 4 -4 12 -1 16 8 6 9 23 16
42 16 26 1 29 -1 13 -7z m965 -11 c0 -5 -4 -9 -8 -9 -5 0 -9 7 -9 15 0 8 4 12
9 9 4 -3 8 -9 8 -15z m823 -66 c6 -31 5 -31 -27 -30 -36 2 -36 7 -6 82 l13 30
7 -25 c4 -14 10 -39 13 -57z m-582 8 c-11 -15 -17 -32 -13 -36 4 -5 1 -5 -6
-1 -13 8 -9 19 16 49 24 27 25 20 3 -12z m-261 -21 c0 -5 -2 -10 -4 -10 -3 0
-8 5 -11 10 -3 6 -1 10 4 10 6 0 11 -4 11 -10z m-722 -25 c-3 -3 -9 2 -12 12
-6 14 -5 15 5 6 7 -7 10 -15 7 -18z m-438 0 c0 -2 -10 -10 -22 -16 -21 -11
-22 -11 -9 4 13 16 31 23 31 12z m1382 -56 c-11 -24 -22 -51 -25 -59 -4 -10
-6 -7 -6 7 -1 13 8 37 18 54 11 17 17 39 14 48 -5 12 -3 13 6 5 10 -9 8 -21
-7 -55z m-1422 16 c0 -2 -6 -5 -13 -8 -8 -3 -14 1 -14 8 0 7 6 11 14 8 7 -3
13 -6 13 -8z m2215 -6 c-4 -5 -12 -9 -18 -8 -9 0 -8 2 1 6 6 2 9 10 6 15 -4 7
-2 8 5 4 6 -4 9 -12 6 -17z m-2276 -42 c-23 -22 -54 -33 -43 -16 3 5 9 7 13 5
4 -3 16 9 26 25 11 16 22 24 24 18 2 -6 -7 -20 -20 -32z m529 18 c-3 -3 -9 2
-12 12 -6 14 -5 15 5 6 7 -7 10 -15 7 -18z m-11 -47 c-3 -8 -6 -5 -6 6 -1 11
2 17 5 13 3 -3 4 -12 1 -19z m697 -22 c-3 -21 -8 -35 -11 -32 -2 2 -1 20 3 40
3 21 8 35 11 32 2 -2 1 -20 -3 -40z m-1282 -16 c-44 -43 -93 -103 -105 -130
-7 -14 -17 -31 -24 -38 -7 -7 -13 -20 -13 -28 0 -8 -5 -14 -12 -14 -6 0 -8 -3
-5 -7 4 -3 1 -13 -5 -21 -16 -19 -20 -50 -9 -71 6 -10 12 -31 15 -46 l5 -28
-20 21 c-16 18 -23 20 -44 10 -13 -6 -23 -14 -20 -17 2 -4 -1 -13 -6 -21 -19
-29 0 41 20 76 18 29 18 35 6 48 -8 8 -15 19 -15 25 0 6 -17 27 -37 46 -21 19
-30 32 -20 29 9 -3 17 -9 17 -13 0 -3 16 -18 35 -34 34 -27 35 -27 54 -8 11
11 16 23 13 27 -4 4 -2 4 4 1 10 -6 31 25 32 47 0 5 4 12 9 15 5 3 24 27 42
54 17 26 37 47 43 47 6 0 9 3 6 6 -8 7 34 50 49 50 6 0 -1 -11 -15 -26z m581
0 c-3 -12 -8 -19 -11 -16 -5 6 5 36 12 36 2 0 2 -9 -1 -20z m1457 0 c-6 -11
-13 -20 -16 -20 -2 0 0 9 6 20 6 11 13 20 16 20 2 0 0 -9 -6 -20z m-540 -24
c0 -3 -4 -8 -10 -11 -5 -3 -10 -1 -10 4 0 6 5 11 10 11 6 0 10 -2 10 -4z m530
-20 c0 -3 -4 -8 -10 -11 -5 -3 -10 -1 -10 4 0 6 5 11 10 11 6 0 10 -2 10 -4z
m-763 -63 c-3 -10 -5 -2 -5 17 0 19 2 27 5 18 2 -10 2 -26 0 -35z m930 25 c-3
-8 -6 -5 -6 6 -1 11 2 17 5 13 3 -3 4 -12 1 -19z m-733 -18 c-10 -16 -20 -28
-22 -26 -4 5 28 56 35 56 2 0 -4 -13 -13 -30z m1237 -33 c-11 -25 -17 -48 -14
-51 4 -3 1 -6 -5 -6 -7 0 -11 -3 -11 -7 1 -5 0 -10 -1 -13 -2 -6 -7 -25 -14
-58 -9 -39 -17 -45 -37 -26 -18 16 -21 14 -82 -50 -36 -36 -68 -66 -72 -66 -4
0 26 36 67 79 41 44 83 97 93 117 10 21 24 45 32 52 7 7 13 19 13 26 0 16 44
70 48 58 1 -5 -6 -29 -17 -55z m-711 28 c-6 -8 -8 -20 -4 -27 5 -10 4 -10 -6
-1 -11 10 -11 15 0 28 7 8 15 15 17 15 3 0 0 -7 -7 -15z m1009 -31 c29 -37 28
-61 -1 -34 -23 21 -64 28 -52 8 4 -7 3 -8 -4 -4 -9 5 -7 14 4 32 21 30 28 30
53 -2z m656 16 c13 -6 15 -9 5 -9 -8 0 -22 4 -30 9 -18 12 -2 12 25 0z m-4365
-10 c-20 -13 -33 -13 -25 0 3 6 14 10 23 10 15 0 15 -2 2 -10z m77 4 c-3 -3
-12 -4 -19 -1 -8 3 -5 6 6 6 11 1 17 -2 13 -5z m250 0 c-3 -3 -12 -4 -19 -1
-8 3 -5 6 6 6 11 1 17 -2 13 -5z m3903 -4 c-8 -5 -19 -10 -25 -10 -5 0 -3 5 5
10 8 5 20 10 25 10 6 0 3 -5 -5 -10z m-4280 -4 c0 -3 -4 -8 -10 -11 -5 -3 -10
-1 -10 4 0 6 5 11 10 11 6 0 10 -2 10 -4z m446 -27 c3 -6 -5 -3 -20 6 -14 10
-26 19 -26 22 0 7 39 -17 46 -28z m1571 -6 c-3 -10 -5 -4 -5 12 0 17 2 24 5
18 2 -7 2 -21 0 -30z m2218 27 c-3 -5 -12 -10 -18 -10 -7 0 -6 4 3 10 19 12
23 12 15 0z m-4285 -10 c-8 -5 -19 -10 -25 -10 -5 0 -3 5 5 10 8 5 20 10 25
10 6 0 3 -5 -5 -10z m2248 -15 c-6 -14 -13 -23 -15 -21 -5 5 15 46 22 46 3 0
-1 -11 -7 -25z m528 13 c-3 -19 -25 -55 -26 -42 0 6 3 14 8 18 4 4 8 12 8 17
2 15 4 19 8 19 2 0 3 -6 2 -12z m1760 3 c-4 -5 -1 -12 4 -14 6 -3 5 -4 -2 -3
-15 3 -23 26 -8 26 6 0 9 -4 6 -9z m-3180 -16 c-3 -9 3 -19 17 -26 24 -13 46
-38 47 -53 0 -5 -8 0 -17 11 -21 23 -40 20 -68 -13 l-21 -24 -2 25 c-1 13 3
27 8 30 6 3 10 15 10 26 0 10 5 19 11 19 5 0 7 5 4 10 -3 6 -1 10 5 10 7 0 10
-7 6 -15z m2874 5 c-8 -5 -22 -9 -30 -9 -10 0 -8 3 5 9 27 12 43 12 25 0z
m-4305 -10 c3 -5 1 -10 -4 -10 -6 0 -11 5 -11 10 0 6 2 10 4 10 3 0 8 -4 11
-10z m3803 -19 c-58 -79 -78 -103 -78 -95 0 5 18 31 39 59 22 27 37 53 34 59
-4 5 -1 6 6 2 9 -6 9 -12 -1 -25z m-3863 -1 c-11 -5 -29 -9 -40 -9 l-20 0 20
9 c11 5 29 9 40 9 l20 0 -20 -9z m3286 -19 c-6 -10 -8 -21 -6 -25 3 -3 0 -2
-7 3 -8 8 -8 14 2 26 17 21 23 19 11 -4z m1390 -4 c-10 -9 -11 -8 -5 6 3 10 9
15 12 12 3 -3 0 -11 -7 -18z m-4761 3 c0 -5 -5 -10 -11 -10 -5 0 -7 5 -4 10 3
6 8 10 11 10 2 0 4 -4 4 -10z m2967 -15 c0 -8 -12 -25 -26 -37 l-26 -23 24 28
c14 15 21 27 17 27 -4 0 -4 5 -1 10 9 14 12 13 12 -5z m1353 -1 c-21 -24 -47
-35 -47 -19 0 7 7 11 15 7 11 -4 13 -1 7 8 -5 9 -4 11 3 6 7 -4 12 -2 12 3 0
6 5 11 11 11 8 0 7 -5 -1 -16z m-1887 -19 c-3 -9 -8 -14 -10 -11 -3 3 -2 9 2
15 9 16 15 13 8 -4z m2307 -20 c-13 -14 -19 -25 -14 -25 5 -1 -1 -6 -13 -13
-12 -7 -22 -16 -23 -22 -1 -5 -6 -9 -11 -7 -5 1 -9 -2 -9 -7 0 -6 -18 -20 -40
-32 -22 -13 -40 -26 -40 -31 0 -4 -6 -8 -14 -8 -7 0 -19 -7 -26 -15 -7 -8 -16
-13 -20 -10 -5 3 -11 1 -15 -5 -3 -5 -13 -10 -21 -10 -8 0 -12 5 -9 10 4 6 11
8 16 5 5 -4 9 -2 9 4 0 5 16 15 34 22 19 7 33 16 30 21 -3 5 -1 7 4 6 5 -2 27
13 48 32 22 19 42 34 45 33 3 -1 23 18 44 43 21 24 40 42 43 39 3 -3 -5 -16
-18 -30z m-4800 21 c0 -2 -13 -9 -30 -15 -35 -12 -41 -5 -7 9 25 10 37 12 37
6z m1586 -15 c-3 -4 -1 -13 4 -20 4 -8 2 -27 -5 -45 -7 -17 -10 -37 -7 -45 3
-9 0 -11 -8 -6 -8 5 -11 4 -7 -2 4 -6 -2 -31 -12 -55 -17 -37 -20 -40 -20 -17
-1 23 -31 65 -31 43 0 -4 -5 -3 -12 4 -9 9 -8 16 5 30 9 10 14 22 10 27 -5 4
-3 5 3 2 11 -6 25 13 29 38 0 6 6 9 12 8 6 -1 13 11 17 28 3 17 10 28 16 24 6
-4 8 -10 6 -14z m1672 -3 c-2 -6 -26 -36 -55 -67 -28 -31 -66 -72 -83 -91 -31
-34 -32 -34 -15 -5 9 17 28 41 41 55 12 14 42 46 65 73 43 49 51 55 47 35z
m155 -3 c-3 -9 -8 -14 -10 -11 -3 3 -2 9 2 15 9 16 15 13 8 -4z m895 -5 c-7
-11 -19 -22 -27 -25 -12 -5 -12 -3 0 12 13 17 31 32 37 33 1 0 -3 -9 -10 -20z
m-1971 -12 c-3 -8 -6 -5 -6 6 -1 11 2 17 5 13 3 -3 4 -12 1 -19z m1803 18 c0
-3 -4 -8 -10 -11 -5 -3 -10 -1 -10 4 0 6 5 11 10 11 6 0 10 -2 10 -4z m-2420
-41 c0 -5 -5 -3 -10 5 -5 8 -10 20 -10 25 0 6 5 3 10 -5 5 -8 10 -19 10 -25z
m-1859 1 c-13 -15 -54 -29 -45 -15 3 5 12 9 20 9 8 0 17 7 21 15 3 9 8 14 11
11 3 -3 0 -12 -7 -20z m4026 -32 c-20 -19 -38 -30 -41 -26 -3 5 6 15 19 22 13
7 22 18 18 23 -3 6 -1 7 5 3 6 -3 14 4 18 16 5 15 9 18 12 9 2 -8 -11 -29 -31
-47z m-887 42 c0 -3 -4 -8 -10 -11 -5 -3 -10 -1 -10 4 0 6 5 11 10 11 6 0 10
-2 10 -4z m1148 -8 c-5 -14 15 -38 30 -38 15 0 62 26 57 32 -3 2 2 5 10 5 9 0
-7 -21 -36 -47 -49 -47 -51 -49 -49 -101 1 -30 1 -58 0 -64 -1 -5 -1 -14 0
-20 1 -5 -2 -6 -7 -2 -4 5 -8 18 -8 30 0 35 -51 36 -67 3 -6 -14 -15 -26 -20
-26 -4 0 -8 -5 -8 -11 0 -17 -28 -40 -35 -29 -3 5 -1 10 4 10 6 0 11 6 11 14
0 8 7 16 15 20 8 3 15 10 15 15 0 5 13 24 30 42 16 18 27 36 24 40 -2 4 1 9 8
11 6 2 12 28 14 59 3 69 3 69 10 69 3 0 4 -6 2 -12z m-888 -293 c-15 -76 -40
-124 -85 -163 -42 -38 -71 -46 -132 -39 -52 6 -97 34 -101 66 -4 25 102 174
235 330 l88 103 3 -118 c2 -66 -2 -146 -8 -179z m-290 254 c-6 -10 -7 -19 -3
-19 4 0 -1 -6 -12 -13 -10 -8 -15 -19 -11 -25 4 -7 3 -12 -3 -12 -10 0 -27
-39 -23 -53 1 -5 -2 -6 -8 -2 -10 6 -3 26 40 106 11 20 16 40 12 44 -4 5 -1 5
6 1 9 -5 9 -12 2 -27z m340 16 c0 -8 -2 -15 -4 -15 -2 0 -6 7 -10 15 -3 8 -1
15 4 15 6 0 10 -7 10 -15z m-3515 -15 c-3 -5 -16 -10 -28 -9 -21 0 -21 1 -2 9
28 12 37 12 30 0z m-70 -37 c-15 -8 -29 -12 -32 -10 -2 3 5 8 16 12 12 3 19
11 16 16 -3 5 2 6 11 2 14 -5 12 -8 -11 -20z m1191 -45 c29 -95 26 -432 -5
-613 -49 -293 -158 -644 -195 -632 -6 2 -20 19 -31 38 -55 94 -10 633 80 944
29 101 116 325 126 325 3 0 14 -28 25 -62z m794 52 c0 -5 -5 -10 -11 -10 -5 0
-7 5 -4 10 3 6 8 10 11 10 2 0 4 -4 4 -10z m711 -23 c-10 -9 -11 -8 -5 6 3 10
9 15 12 12 3 -3 0 -11 -7 -18z m1401 1 c-18 -19 -24 -20 -34 -9 -10 11 -10 12
0 7 6 -4 12 -3 12 3 0 8 8 12 40 20 2 0 -6 -9 -18 -21z m-2858 -63 c4 -20 3
-25 -3 -15 -5 8 -11 31 -15 50 -7 41 7 13 18 -35z m506 15 c-27 -27 -37 -20
-16 12 9 14 15 27 13 30 -2 3 3 0 11 -7 12 -11 11 -16 -8 -35z m228 30 c-7
-10 -14 -18 -15 -16 -6 6 9 36 18 36 5 0 4 -9 -3 -20z m1710 -5 c-3 -3 -9 2
-12 12 -6 14 -5 15 5 6 7 -7 10 -15 7 -18z m-3777 -10 c-42 -19 -50 -19 -25 0
10 8 28 14 39 14 14 0 10 -4 -14 -14z m1820 -161 c-32 -82 -78 -189 -101 -239
-47 -102 -140 -268 -146 -262 -7 7 68 209 120 327 49 111 179 346 184 332 1
-5 -24 -75 -57 -158z m2099 162 c0 -2 -7 -7 -16 -10 -8 -3 -12 -2 -9 4 6 10
25 14 25 6z m-87 -51 c4 3 3 0 -1 -5 -13 -16 -38 -2 -51 28 l-13 27 29 -28
c16 -15 32 -25 36 -22z m-2650 20 c-3 -9 -8 -14 -10 -11 -3 3 -2 9 2 15 9 16
15 13 8 -4z m2691 -9 c-6 -15 -24 -23 -24 -11 0 8 24 34 28 30 1 -1 0 -10 -4
-19z m-420 5 c6 -8 -27 -53 -38 -52 -3 1 -6 -2 -7 -6 -1 -10 -38 -62 -61 -87
-9 -10 -15 -23 -12 -27 2 -4 1 -10 -4 -13 -18 -11 -7 30 14 53 13 14 21 28 18
33 -3 4 0 8 6 8 6 0 14 8 18 18 6 15 53 80 59 81 1 1 4 -3 7 -8z m1411 -11
c-3 -5 -12 -10 -18 -10 -7 0 -6 4 3 10 19 12 23 12 15 0z m-4957 -7 c-10 -2
-18 -9 -18 -14 0 -6 -5 -7 -11 -3 -14 8 8 24 31 23 11 -1 10 -3 -2 -6z m1881
-38 c-18 -25 -34 -45 -36 -45 -7 0 37 74 49 82 22 13 20 10 -13 -37z m-626 15
c-3 -12 -8 -19 -11 -16 -5 6 5 36 12 36 2 0 2 -9 -1 -20z m729 -15 c-5 -16
-15 -30 -23 -33 -9 -2 -10 -1 -3 5 6 4 14 21 18 37 4 15 9 26 11 24 2 -2 1
-17 -3 -33z m161 20 c-3 -9 -8 -14 -10 -11 -3 3 -2 9 2 15 9 16 15 13 8 -4z
m663 -113 c-40 -110 -44 -128 -44 -214 0 -51 -1 -97 -1 -103 -1 -5 -8 1 -17
14 l-17 23 -23 -28 c-13 -16 -23 -36 -24 -44 0 -9 -10 -43 -21 -75 -12 -33
-23 -78 -25 -100 -6 -87 -15 -163 -26 -225 -5 -36 -12 -76 -13 -90 -7 -58 -15
-98 -30 -145 -9 -27 -18 -63 -21 -79 -3 -16 -13 -40 -21 -53 -8 -13 -13 -23
-9 -23 6 0 -27 -64 -63 -122 -13 -21 -26 -36 -30 -34 -14 9 -1 132 22 206 7
25 12 51 9 59 -3 9 0 11 8 6 10 -6 12 -3 7 10 -4 9 -2 24 4 32 7 7 9 16 6 20
-4 3 -3 11 2 17 4 6 16 36 26 66 10 30 22 60 26 66 5 6 7 13 4 16 -3 3 9 43
25 90 17 48 30 90 29 95 -1 4 4 22 11 38 20 42 18 172 -2 213 -17 33 -4 34 20
0 16 -22 32 -23 32 -3 0 8 4 15 9 15 5 0 30 63 55 139 36 109 47 161 52 237 7
95 8 97 25 75 l18 -22 18 25 c10 13 19 23 21 21 1 -1 -17 -56 -42 -123z m530
86 c-9 -12 -16 -19 -16 -15 0 11 24 47 28 42 2 -2 -3 -14 -12 -27z m1243 -148
c-9 -201 -31 -364 -59 -426 -50 -114 -138 -128 -176 -29 -15 41 -16 54 -4 117
17 95 48 184 100 288 40 79 139 236 144 228 1 -2 -1 -82 -5 -178z m-4619 167
c0 -2 -24 -19 -52 -37 -29 -18 -61 -40 -71 -49 -10 -8 -28 -16 -40 -17 -12 -2
-16 0 -10 2 7 3 14 4 17 2 2 -2 15 8 28 22 13 14 29 26 35 27 6 1 28 14 49 28
36 24 44 28 44 22z m2174 -33 c3 -8 2 -12 -4 -9 -6 3 -10 -4 -10 -16 0 -12 -3
-20 -6 -16 -6 6 3 57 10 57 2 0 7 -7 10 -16z m-900 -24 c-17 -33 -27 -40 -17
-12 6 17 23 42 28 42 2 0 -3 -13 -11 -30z m2071 -34 c-13 -24 -20 -48 -17 -52
4 -4 2 -4 -5 0 -9 5 -8 13 3 34 7 15 14 32 14 39 0 6 6 14 13 16 6 3 13 6 14
6 1 1 -9 -19 -22 -43z m-1868 -8 c-3 -8 -6 -5 -6 6 -1 11 2 17 5 13 3 -3 4
-12 1 -19z m3029 -7 c-9 -10 -13 -21 -9 -24 3 -4 1 -7 -5 -7 -15 0 -15 3 -1
34 7 14 16 23 21 20 5 -3 2 -14 -6 -23z m-2643 -1 c-3 -11 -10 -20 -15 -20 -6
0 -8 -7 -4 -15 3 -8 1 -15 -4 -15 -15 0 -12 17 6 45 20 30 24 31 17 5z m127 5
c0 -8 -2 -15 -4 -15 -2 0 -6 7 -10 15 -3 8 -1 15 4 15 6 0 10 -7 10 -15z m355
-42 c-3 -54 -6 -70 -21 -145 -3 -15 -10 -31 -16 -34 -6 -4 -8 2 -3 16 4 13 2
32 -5 46 -10 18 -17 21 -31 14 -10 -6 -21 -20 -24 -31 -6 -17 -9 -19 -16 -8
-5 9 -2 21 10 34 9 11 26 39 37 62 10 24 22 43 27 43 4 0 7 5 7 12 0 10 28 48
36 48 1 0 1 -26 -1 -57z m215 -30 c0 -41 6 -80 15 -97 19 -35 19 -41 1 -24 -7
8 -17 25 -21 38 -14 45 -25 52 -52 34 -24 -15 -25 -15 -18 8 11 35 56 108 66
108 5 0 9 -30 9 -67z m-587 27 c-3 -10 -12 -25 -21 -32 -13 -11 -13 -9 1 18 9
17 13 35 9 39 -4 5 -2 5 5 2 6 -4 9 -16 6 -27z m-2188 1 c-8 -14 -25 -14 -25
0 0 5 5 7 10 4 6 -3 10 -1 10 6 0 7 3 10 6 6 3 -3 3 -10 -1 -16z m4872 -3 c-3
-8 -6 -5 -6 6 -1 11 2 17 5 13 3 -3 4 -12 1 -19z m-195 -39 c-14 -21 -27 -37
-30 -35 -2 3 6 19 18 35 11 17 18 35 15 41 -3 5 0 7 8 4 12 -4 10 -13 -11 -45z
m-2312 20 c0 -6 -4 -7 -10 -4 -5 3 -10 11 -10 16 0 6 5 7 10 4 6 -3 10 -11 10
-16z m1164 13 c3 -5 -1 -9 -9 -9 -8 0 -12 4 -9 9 3 4 7 8 9 8 2 0 6 -4 9 -8z
m111 -30 c-10 -10 -16 -12 -13 -7 3 6 8 19 13 30 5 14 9 16 12 7 3 -8 -3 -21
-12 -30z m-3684 5 c-10 -9 -11 -8 -5 6 3 10 9 15 12 12 3 -3 0 -11 -7 -18z
m-28 -22 c-3 -9 -8 -14 -10 -11 -3 3 -2 9 2 15 9 16 15 13 8 -4z m3562 -39
c-15 -25 -23 -46 -19 -46 4 0 -3 -11 -15 -24 -12 -13 -24 -32 -25 -42 -2 -10
-9 -20 -16 -22 -8 -3 -4 11 10 37 13 22 28 41 32 41 5 0 6 5 3 10 -4 6 1 22 9
35 9 14 14 25 11 25 -3 0 3 8 13 18 27 29 26 18 -3 -32z m-2051 28 c3 -8 2
-12 -4 -9 -6 3 -10 10 -10 16 0 14 7 11 14 -7z m711 -18 c-8 -12 -13 -25 -10
-28 3 -2 -1 -5 -8 -5 -10 0 -9 8 3 32 8 18 18 31 22 28 4 -2 1 -14 -7 -27z
m1820 4 c-3 -5 -12 -10 -18 -10 -7 0 -6 4 3 10 19 12 23 12 15 0z m-1963 -32
c-12 -18 -21 -36 -22 -40 0 -4 -7 -23 -15 -42 -8 -20 -15 -41 -15 -48 0 -10
-3 -10 -9 1 -6 9 -2 25 10 45 10 17 19 38 19 46 0 14 38 70 48 70 2 0 -5 -15
-16 -32z m2865 0 c-3 -7 -5 -2 -5 12 0 14 2 19 5 13 2 -7 2 -19 0 -25z m-2190
-16 c-7 -10 -19 -31 -26 -48 -7 -18 -21 -41 -32 -53 -11 -12 -16 -21 -12 -21
4 0 3 -4 -3 -8 -6 -4 -25 -28 -43 -54 -66 -98 -104 -78 -76 40 4 17 11 32 16
32 5 0 6 -6 3 -14 -3 -7 3 -21 12 -31 16 -16 20 -14 60 30 24 26 42 50 41 53
-1 4 2 7 6 7 9 0 39 59 46 91 0 3 6 2 12 -1 7 -5 6 -12 -4 -23z m1955 5 c-7
-8 -8 -18 -4 -22 4 -5 1 -5 -6 -1 -9 5 -9 12 -1 27 6 12 13 18 16 15 3 -3 1
-12 -5 -19z m-2528 -59 c-10 -18 -17 -37 -16 -41 1 -5 -2 -6 -7 -2 -6 3 -1 23
12 48 12 24 23 40 25 36 2 -4 -5 -23 -14 -41z m1799 37 c-3 -9 -8 -14 -10 -11
-3 3 -2 9 2 15 9 16 15 13 8 -4z m693 -72 c-13 -25 -15 -26 -13 -5 1 12 5 22
9 22 4 0 7 3 7 8 -1 4 0 16 1 27 3 18 3 18 7 -2 2 -12 -2 -34 -11 -50z m-4829
32 c0 -8 -4 -12 -9 -9 -5 3 -6 10 -3 15 9 13 12 11 12 -6z m3053 -47 c12 -39
3 -35 -13 5 -8 17 -11 39 -8 47 4 11 6 10 9 -5 2 -11 7 -32 12 -47z m-1139 15
c-12 -20 -14 -14 -5 12 4 9 9 14 11 11 3 -2 0 -13 -6 -23z m728 5 c-6 -13 -17
-30 -25 -38 -7 -8 -13 -18 -14 -22 -2 -23 -92 -198 -100 -198 -9 0 -14 13 -12
31 11 105 27 175 41 184 5 2 12 -7 16 -22 4 -19 9 -23 14 -14 5 7 12 12 17 12
5 -1 20 19 33 44 13 25 27 45 32 45 6 0 4 -10 -2 -22z m105 -4 c3 -8 2 -12 -4
-9 -6 3 -10 10 -10 16 0 14 7 11 14 -7z m-211 -9 c-3 -9 -8 -14 -10 -11 -3 3
-2 9 2 15 9 16 15 13 8 -4z m-258 -69 c-15 -30 -35 -58 -44 -61 -11 -5 -10 0
5 17 11 13 29 42 39 66 10 23 20 40 23 37 3 -2 -8 -29 -23 -59z m1343 14 c-13
-22 -24 -35 -26 -30 -5 13 27 70 39 70 5 0 -1 -18 -13 -40z m1196 15 c-4 -8
-10 -15 -15 -15 -4 0 -6 7 -3 15 4 8 10 15 15 15 4 0 6 -7 3 -15z m-2912 -37
c-8 -8 -9 -4 -5 13 4 13 8 18 11 10 2 -7 -1 -18 -6 -23z m268 28 c0 -2 -8 -10
-17 -17 -16 -13 -17 -12 -4 4 13 16 21 21 21 13z m1077 -38 c-3 -8 -6 -5 -6 6
-1 11 2 17 5 13 3 -3 4 -12 1 -19z m1831 -3 c-3 -3 -9 2 -12 12 -6 14 -5 15 5
6 7 -7 10 -15 7 -18z m-2941 -32 c-3 -10 -5 -4 -5 12 0 17 2 24 5 18 2 -7 2
-21 0 -30z m-240 -10 c-3 -10 -5 -4 -5 12 0 17 2 24 5 18 2 -7 2 -21 0 -30z
m1684 9 c-5 -10 -18 -25 -27 -33 -16 -13 -16 -12 -4 11 11 22 28 39 38 40 1 0
-2 -8 -7 -18z m1482 -32 c3 -11 1 -18 -4 -14 -5 3 -9 12 -9 20 0 20 7 17 13
-6z m-2939 -31 c-2 -53 20 -63 53 -23 25 32 32 22 8 -12 -8 -12 -11 -25 -7
-29 4 -5 1 -5 -5 -1 -7 4 -13 3 -13 -3 0 -15 -70 -82 -79 -76 -10 5 -7 33 9
95 6 25 14 55 17 68 9 36 19 25 17 -19z m101 24 c-2 -10 -4 -19 -4 -21 -1 -2
-6 0 -11 3 -8 5 -7 11 1 21 15 18 18 18 14 -3z m1042 -16 c1 -12 5 -38 7 -57
l5 -35 -10 35 c-12 42 -18 92 -10 84 3 -3 7 -15 8 -27z m1523 -1 c0 -14 -4
-27 -8 -30 -5 -3 -9 8 -9 24 0 17 4 30 9 30 4 0 8 -11 8 -24z m-3193 -28 c-3
-7 -5 -2 -5 12 0 14 2 19 5 13 2 -7 2 -19 0 -25z m1914 -11 c-6 -8 -7 -18 -3
-22 4 -5 2 -5 -4 -2 -11 7 -29 -19 -25 -36 1 -5 -3 -6 -9 -2 -12 7 -6 20 23
53 22 23 37 31 18 9z m-1924 -29 c-3 -8 -6 -5 -6 6 -1 11 2 17 5 13 3 -3 4
-12 1 -19z m3444 -12 c-6 -14 -16 -26 -23 -26 -9 0 -10 3 -2 8 6 4 15 17 19
30 4 13 9 22 11 19 3 -2 0 -16 -5 -31z m-3159 -22 c-6 -12 -9 -7 -9 16 0 23 3
28 9 16 5 -9 5 -23 0 -32z m1444 -31 c8 -3 11 -9 8 -14 -3 -5 2 -9 10 -9 9 0
16 -4 16 -10 0 -16 -28 0 -44 25 -9 14 -15 32 -15 42 1 12 3 10 6 -5 3 -13 11
-26 19 -29z m121 7 c-14 -11 -28 -20 -32 -20 -10 0 38 39 49 40 5 0 -3 -9 -17
-20z m1417 -38 c-7 -9 -42 20 -47 38 -5 19 -2 18 22 -7 15 -15 27 -29 25 -31z
m-3003 15 c-10 -9 -11 -8 -5 6 3 10 9 15 12 12 3 -3 0 -11 -7 -18z m3124 -4
c-11 -7 -28 -13 -39 -12 -21 0 -21 0 0 9 12 5 25 13 29 19 3 6 11 8 17 5 7 -5
4 -12 -7 -21z m-1575 -12 c0 -14 -29 -21 -36 -9 -4 7 -3 8 4 4 7 -4 12 -2 12
3 0 6 5 11 10 11 6 0 10 -4 10 -9z m-1820 -21 c0 -11 -4 -20 -9 -20 -5 0 -7 9
-4 20 3 11 7 20 9 20 2 0 4 -9 4 -20z m3340 10 c8 -5 11 -10 5 -10 -5 0 -17 5
-25 10 -8 5 -10 10 -5 10 6 0 17 -5 25 -10z m-3096 -135 c-4 -8 -10 -12 -15
-9 -11 6 -2 24 11 24 5 0 7 -7 4 -15z m-28 -76 c-18 -41 -21 -29 -4 18 7 19
14 30 16 25 1 -4 -4 -24 -12 -43z m-229 -21 c-3 -7 -5 -2 -5 12 0 14 2 19 5
13 2 -7 2 -19 0 -25z m13 -143 c0 -5 -5 -3 -10 5 -5 8 -10 20 -10 25 0 6 5 3
10 -5 5 -8 10 -19 10 -25z m165 3 c-7 -31 -35 -70 -35 -49 0 5 5 13 11 16 6 4
8 13 5 21 -3 8 -1 14 4 14 6 0 10 7 10 15 0 8 3 15 6 15 3 0 2 -14 -1 -32z
m-106 -84 c18 -14 64 3 54 20 -3 6 0 5 8 -1 9 -9 10 -16 3 -23 -15 -15 -62
-22 -69 -10 -4 6 -10 8 -15 5 -4 -3 -13 9 -19 27 -15 43 -14 47 6 18 9 -14 24
-30 32 -36z"/>
<path d="M3736 2528 c3 -5 10 -6 15 -3 13 9 11 12 -6 12 -8 0 -12 -4 -9 -9z"/>
<path d="M4495 2231 c-3 -5 -2 -12 3 -15 5 -3 9 1 9 9 0 17 -3 19 -12 6z"/>
<path d="M2440 2120 c0 -5 5 -10 11 -10 5 0 7 5 4 10 -3 6 -8 10 -11 10 -2 0
-4 -4 -4 -10z"/>
<path d="M2006 1912 c-3 -5 1 -9 9 -9 8 0 12 4 9 9 -3 4 -7 8 -9 8 -2 0 -6 -4
-9 -8z"/>
<path d="M4750 1831 c0 -6 4 -13 10 -16 6 -3 7 1 4 9 -7 18 -14 21 -14 7z"/>
<path d="M5583 1695 c0 -8 4 -12 9 -9 5 3 6 10 3 15 -9 13 -12 11 -12 -6z"/>
<path d="M4175 1670 c-3 -6 1 -7 9 -4 18 7 21 14 7 14 -6 0 -13 -4 -16 -10z"/>
<path d="M5085 1631 c-3 -5 -2 -12 3 -15 5 -3 9 1 9 9 0 17 -3 19 -12 6z"/>
<path d="M5136 1568 c3 -5 10 -6 15 -3 13 9 11 12 -6 12 -8 0 -12 -4 -9 -9z"/>
<path d="M5345 1571 c-3 -5 -2 -12 3 -15 5 -3 9 1 9 9 0 17 -3 19 -12 6z"/>
<path d="M346 1412 c-3 -5 1 -9 9 -9 8 0 12 4 9 9 -3 4 -7 8 -9 8 -2 0 -6 -4
-9 -8z"/>
<path d="M4359 1143 c-13 -16 -12 -17 4 -4 9 7 17 15 17 17 0 8 -8 3 -21 -13z"/>
</g>
</svg>
